<!DOCTYPE svg PUBLIC "-//W3C//DTD SVG 1.1//EN" "http://www.w3.org/Graphics/SVG/1.1/DTD/svg11.dtd">
<svg version="1.1" xmlns="http://www.w3.org/2000/svg" xmlns:xlink="http://www.w3.org/1999/xlink"
  width="500px" height="617px" viewBox="-0.82 -0.339 500 617">
  <rect id="線_x5F_小_1_" x="9.18" y="524.036" fill="#231815" stroke="#FFFFFF" stroke-width="5.6693" width="480" height="4.794"/>
  <rect id="線_x5F_大_1_" x="9.18" y="524.036" fill="#231815" width="480" height="4.794"/>
  <path fill="#040000" stroke="#FFFFFF" stroke-width="5.6693" d="M24.492,542.08c-0.111,0.766-0.201,1.669-0.27,2.709
    c-0.069,1.041-0.125,2.082-0.166,3.123c-0.042,1.041-0.077,2.021-0.104,2.938c-0.028,0.919-0.042,1.653-0.042,2.204v14.925
    c1.41-1.04,2.943-1.921,4.601-2.641c1.658-0.719,3.274-1.079,4.849-1.079c0.995,0,1.934,0.169,2.818,0.505
    c0.884,0.338,1.658,0.881,2.321,1.631s1.188,1.729,1.575,2.938c0.386,1.21,0.58,2.687,0.58,4.432v12.353
    c0,0.735,0.034,1.325,0.104,1.769c0.069,0.444,0.242,0.788,0.518,1.033c0.276,0.245,0.69,0.413,1.244,0.505
    c0.552,0.092,1.298,0.169,2.238,0.229l-0.083,1.699c-0.885,0-1.9-0.015-3.046-0.046c-1.147-0.03-2.383-0.046-3.709-0.046
    c-1.078,0-2.101,0.016-3.067,0.046c-0.967,0.031-1.838,0.046-2.611,0.046l-0.124-1.47c0.856-0.092,1.554-0.214,2.093-0.367
    c0.539-0.152,0.954-0.405,1.244-0.758c0.29-0.352,0.483-0.856,0.58-1.516c0.097-0.657,0.145-1.568,0.145-2.732v-9.688
    c0-2.48-0.497-4.255-1.492-5.327c-0.995-1.071-2.28-1.607-3.855-1.607c-1.05,0-2.169,0.207-3.357,0.62
    c-1.188,0.413-2.377,1.003-3.565,1.768v15.843c0,0.735,0.042,1.325,0.125,1.769c0.083,0.444,0.262,0.788,0.539,1.033
    c0.276,0.245,0.684,0.413,1.223,0.505c0.539,0.092,1.264,0.169,2.176,0.229l-0.124,1.699c-0.885,0-1.873-0.015-2.964-0.046
    c-1.092-0.03-2.3-0.046-3.626-0.046c-1.078,0-2.128,0.016-3.15,0.046c-1.023,0.031-1.921,0.046-2.694,0.046l-0.083-1.47
    c0.912-0.092,1.637-0.229,2.176-0.413c0.539-0.184,0.959-0.467,1.264-0.85c0.304-0.383,0.504-0.918,0.601-1.607
    c0.096-0.688,0.145-1.614,0.145-2.778v-34.211c0-0.888-0.049-1.584-0.145-2.09c-0.097-0.505-0.291-0.896-0.581-1.171
    s-0.725-0.489-1.306-0.643c-0.58-0.153-1.34-0.321-2.279-0.505l-0.125-1.332c0.773-0.153,1.596-0.337,2.466-0.551
    c0.87-0.214,1.706-0.437,2.507-0.666c0.801-0.229,1.554-0.459,2.259-0.689c0.705-0.229,1.278-0.451,1.72-0.665L24.492,542.08z"/>
  <path fill="#040000" stroke="#FFFFFF" stroke-width="5.6693" d="M46.791,566.28l3.772-0.138v-7.348l-0.042-0.505
    c0.415-0.184,0.843-0.374,1.285-0.574c0.442-0.198,0.863-0.39,1.264-0.574c0.4-0.184,0.76-0.359,1.078-0.527
    c0.317-0.168,0.56-0.313,0.726-0.437l0.456,0.275c-0.083,0.551-0.145,1.271-0.187,2.158c-0.042,0.889-0.063,2.112-0.063,3.674v3.766
    l11.688-0.184v-3.995c0-0.765-0.007-1.546-0.021-2.342c-0.015-0.796-0.021-1.562-0.021-2.296c0.415-0.185,0.843-0.375,1.285-0.574
    c0.441-0.199,0.87-0.391,1.285-0.574s0.78-0.359,1.098-0.528c0.317-0.168,0.56-0.313,0.726-0.437l0.456,0.276
    c-0.056,0.766-0.104,1.63-0.145,2.594c-0.042,0.965-0.077,1.929-0.104,2.894c-0.028,0.964-0.048,1.883-0.062,2.755
    c-0.014,0.873-0.021,1.585-0.021,2.136l7.087-0.184l0.332,0.321l-0.125,2.342h-7.294v14.787c0,1.193,0.104,2.174,0.311,2.938
    c0.208,0.766,0.498,1.378,0.871,1.837s0.808,0.773,1.306,0.941c0.497,0.169,1.036,0.253,1.616,0.253
    c0.607,0,1.244-0.076,1.907-0.229s1.312-0.306,1.948-0.46l0.29,1.653c-1.078,0.582-2.238,1.079-3.482,1.493
    c-1.243,0.413-2.445,0.619-3.606,0.619c-0.802,0-1.541-0.114-2.217-0.344c-0.677-0.229-1.278-0.62-1.803-1.171
    c-0.525-0.552-0.933-1.278-1.223-2.182c-0.29-0.902-0.435-2.013-0.435-3.329v-1.24c0-0.551,0.006-1.438,0.021-2.663
    c0.013-1.225,0.021-2.862,0.021-4.914v-7.99H55.08v14.787c0,1.193,0.104,2.174,0.311,2.938c0.207,0.766,0.498,1.378,0.871,1.837
    s0.808,0.773,1.306,0.941c0.497,0.169,1.036,0.253,1.616,0.253c0.607,0,1.244-0.076,1.907-0.229s1.312-0.306,1.948-0.46l0.291,1.653
    c-1.078,0.582-2.238,1.079-3.482,1.493c-1.243,0.413-2.445,0.619-3.606,0.619c-0.802,0-1.541-0.114-2.217-0.344
    c-0.678-0.229-1.278-0.62-1.803-1.171c-0.525-0.552-0.933-1.278-1.223-2.182c-0.29-0.902-0.435-2.013-0.435-3.329v-1.24
    c0-0.551,0.006-1.438,0.021-2.663c0.014-1.225,0.021-2.862,0.021-4.914v-7.99h-3.73l-0.29-0.321L46.791,566.28z"/>
  <path fill="#040000" stroke="#FFFFFF" stroke-width="5.6693" d="M90.062,564.626c-0.056,0.521-0.111,0.98-0.166,1.378
    c-0.056,0.398-0.069,0.98-0.042,1.745c1.271-1.225,2.57-2.112,3.896-2.663c1.326-0.552,2.638-0.827,3.938-0.827
    c1.437,0,2.812,0.321,4.124,0.965c1.312,0.643,2.466,1.531,3.461,2.663c0.995,1.133,1.789,2.487,2.383,4.064
    c0.594,1.577,0.891,3.283,0.891,5.12c0,2.234-0.38,4.286-1.14,6.153c-0.761,1.867-1.797,3.467-3.109,4.799
    c-1.313,1.331-2.839,2.373-4.58,3.122c-1.741,0.75-3.606,1.125-5.595,1.125c-0.194,0-0.45-0.016-0.767-0.046
    c-0.318-0.03-0.67-0.076-1.057-0.138c-0.387-0.062-0.795-0.146-1.223-0.252c-0.429-0.107-0.85-0.237-1.264-0.391v14.925
    c0,0.734,0.048,1.331,0.145,1.791c0.097,0.459,0.332,0.818,0.705,1.079c0.373,0.26,0.939,0.451,1.699,0.573
    c0.76,0.122,1.803,0.214,3.129,0.276l-0.083,1.698c-0.442,0-0.995-0.008-1.658-0.022c-0.663-0.016-1.382-0.023-2.155-0.023
    c-0.746,0-1.506-0.008-2.28-0.022c-0.774-0.016-1.492-0.023-2.155-0.023c-1.078,0-2.142,0.016-3.191,0.046
    c-1.05,0.03-1.962,0.046-2.735,0.046l-0.125-1.469c0.939-0.092,1.692-0.229,2.259-0.413c0.566-0.185,1.001-0.468,1.306-0.85
    c0.304-0.384,0.504-0.919,0.601-1.607c0.096-0.689,0.145-1.615,0.145-2.778v-32.329c0-0.856-0.042-1.53-0.125-2.021
    c-0.083-0.489-0.276-0.88-0.58-1.171c-0.304-0.29-0.74-0.512-1.306-0.666c-0.567-0.152-1.333-0.306-2.3-0.459l-0.125-1.286
    c0.829-0.184,1.672-0.382,2.528-0.597c0.856-0.214,1.679-0.437,2.466-0.666s1.492-0.451,2.114-0.666
    c0.622-0.214,1.112-0.397,1.471-0.551L90.062,564.626z M89.855,587.083c0.746,0.949,1.644,1.623,2.694,2.021
    c1.05,0.398,2.114,0.597,3.191,0.597c1.327,0,2.473-0.29,3.44-0.872c0.967-0.581,1.768-1.37,2.404-2.365
    c0.635-0.994,1.112-2.136,1.43-3.421c0.317-1.286,0.477-2.633,0.477-4.041c0-1.438-0.18-2.824-0.539-4.156
    c-0.359-1.332-0.877-2.51-1.554-3.536c-0.677-1.025-1.52-1.844-2.528-2.457c-1.009-0.611-2.162-0.918-3.461-0.918
    c-2.294,0-4.145,0.658-5.554,1.975V587.083z"/>
  <path fill="#040000" stroke="#FFFFFF" stroke-width="5.6693" d="M128.028,572.985c-0.083-0.949-0.297-1.829-0.643-2.641
    c-0.346-0.812-0.802-1.508-1.368-2.09c-0.566-0.581-1.223-1.033-1.969-1.354s-1.548-0.482-2.404-0.482
    c-0.525,0-1.03,0.092-1.513,0.275s-0.912,0.444-1.285,0.781s-0.67,0.758-0.891,1.263c-0.222,0.505-0.332,1.079-0.332,1.722
    c0,0.766,0.172,1.432,0.518,1.998c0.345,0.566,0.801,1.072,1.368,1.516c0.566,0.443,1.216,0.834,1.948,1.171
    c0.732,0.337,1.485,0.674,2.259,1.01c0.856,0.398,1.706,0.819,2.549,1.263c0.842,0.444,1.596,0.965,2.259,1.562
    s1.195,1.309,1.596,2.136c0.4,0.826,0.601,1.807,0.601,2.938c0,1.439-0.277,2.672-0.829,3.697c-0.553,1.025-1.271,1.875-2.155,2.548
    c-0.885,0.674-1.886,1.172-3.005,1.493s-2.246,0.481-3.378,0.481c-0.719,0-1.444-0.062-2.176-0.184
    c-0.732-0.122-1.417-0.26-2.052-0.413c-0.58-0.153-1.14-0.298-1.679-0.437c-0.539-0.138-1.126-0.236-1.761-0.298
    c-0.028-0.521-0.077-1.179-0.145-1.975c-0.069-0.796-0.145-1.607-0.228-2.434c-0.083-0.827-0.173-1.615-0.27-2.365
    c-0.097-0.75-0.201-1.339-0.311-1.769l1.41-0.413c0.386,1.041,0.814,2.052,1.285,3.031c0.47,0.979,1.029,1.845,1.679,2.595
    c0.649,0.75,1.389,1.354,2.217,1.813c0.829,0.459,1.81,0.688,2.943,0.688c1.078,0,2.031-0.328,2.86-0.987
    c0.829-0.657,1.244-1.66,1.244-3.008c0-0.765-0.16-1.446-0.477-2.043c-0.318-0.598-0.746-1.125-1.285-1.585
    c-0.539-0.459-1.147-0.864-1.824-1.217c-0.677-0.352-1.389-0.695-2.134-1.033c-0.857-0.397-1.707-0.818-2.549-1.263
    c-0.843-0.443-1.596-0.964-2.259-1.562c-0.663-0.597-1.202-1.309-1.617-2.135c-0.414-0.827-0.622-1.821-0.622-2.985
    c0-1.407,0.27-2.617,0.808-3.628c0.539-1.01,1.229-1.844,2.073-2.502c0.842-0.658,1.803-1.141,2.88-1.447
    c1.078-0.306,2.155-0.459,3.233-0.459c1.105,0,2.203,0.123,3.295,0.367c1.091,0.246,2.327,0.398,3.709,0.46
    c-0.083,0.979-0.139,1.905-0.166,2.777c-0.028,0.873-0.042,1.814-0.042,2.824v2.251L128.028,572.985z"/>
  <path fill="#040000" stroke="#FFFFFF" stroke-width="5.6693" d="M137.354,567.979c0-0.521,0.089-1.018,0.27-1.492
    c0.179-0.475,0.421-0.888,0.725-1.24c0.304-0.352,0.656-0.627,1.057-0.826c0.4-0.199,0.835-0.299,1.306-0.299
    c0.441,0,0.871,0.1,1.285,0.299c0.415,0.199,0.773,0.475,1.078,0.826c0.304,0.353,0.545,0.766,0.726,1.24
    c0.179,0.475,0.27,0.972,0.27,1.492s-0.09,1.019-0.27,1.492c-0.18,0.476-0.422,0.889-0.726,1.24
    c-0.304,0.353-0.663,0.628-1.078,0.826c-0.414,0.2-0.843,0.299-1.285,0.299c-0.47,0-0.905-0.099-1.306-0.299
    c-0.401-0.198-0.753-0.474-1.057-0.826c-0.304-0.352-0.546-0.765-0.725-1.24C137.443,568.998,137.354,568.5,137.354,567.979z
     M137.354,588.276c0-0.52,0.089-1.017,0.27-1.492c0.179-0.475,0.421-0.888,0.725-1.239s0.656-0.628,1.057-0.827
    c0.4-0.198,0.835-0.299,1.306-0.299c0.441,0,0.871,0.101,1.285,0.299c0.415,0.199,0.773,0.476,1.078,0.827
    c0.304,0.352,0.545,0.765,0.726,1.239c0.179,0.476,0.27,0.973,0.27,1.492c0,0.521-0.09,1.019-0.27,1.493
    c-0.18,0.475-0.422,0.888-0.726,1.239c-0.304,0.352-0.663,0.627-1.078,0.827c-0.414,0.198-0.843,0.298-1.285,0.298
    c-0.47,0-0.905-0.1-1.306-0.298c-0.401-0.2-0.753-0.476-1.057-0.827s-0.546-0.765-0.725-1.239
    C137.443,589.294,137.354,588.797,137.354,588.276z"/>
  <path fill="#040000" stroke="#FFFFFF" stroke-width="5.6693" d="M162.264,545.385l2.86,0.506l-13.098,51.937l-2.818-0.505
    L162.264,545.385z"/>
  <path fill="#040000" stroke="#FFFFFF" stroke-width="5.6693" d="M184.646,545.385l2.86,0.506l-13.098,51.937l-2.818-0.505
    L184.646,545.385z"/>
  <path fill="#040000" stroke="#FFFFFF" stroke-width="5.6693" d="M207.567,576.52c0.027-0.214,0.042-0.474,0.042-0.78v-3.353
    c0-1.562-0.339-2.854-1.016-3.88c-0.677-1.025-1.761-1.538-3.253-1.538c-0.802,0-1.486,0.16-2.052,0.481
    c-0.567,0.321-1.036,0.743-1.409,1.263c-0.373,0.521-0.65,1.118-0.829,1.791c-0.18,0.674-0.27,1.378-0.27,2.112
    c-0.442,0.398-1.05,0.598-1.824,0.598c-0.636,0-1.237-0.161-1.803-0.482c-0.567-0.321-0.85-0.804-0.85-1.446
    c0-0.489,0.172-0.995,0.518-1.516c0.345-0.521,0.801-1.033,1.368-1.538c0.566-0.506,1.195-0.987,1.886-1.447
    c0.69-0.459,1.395-0.856,2.114-1.193c1.851-0.888,3.675-1.332,5.471-1.332c0.884,0,1.713,0.131,2.487,0.391
    c0.773,0.261,1.451,0.674,2.031,1.239c0.58,0.567,1.036,1.294,1.368,2.182c0.332,0.889,0.498,1.944,0.498,3.169
    c0,1.837-0.028,3.957-0.083,6.359c-0.056,2.404-0.083,5.075-0.083,8.014c0,1.194,0.207,2.128,0.622,2.801
    c0.415,0.674,0.995,1.011,1.741,1.011c0.663,0,1.381-0.26,2.155-0.78l0.746,1.239c-0.636,0.674-1.416,1.225-2.342,1.653
    s-1.858,0.643-2.797,0.643c-0.968,0-1.859-0.291-2.673-0.872c-0.815-0.581-1.361-1.576-1.637-2.985
    c-0.277,0.215-0.705,0.536-1.285,0.965c-0.58,0.429-1.243,0.865-1.989,1.309c-0.746,0.444-1.548,0.834-2.404,1.171
    s-1.672,0.505-2.445,0.505c-0.912,0-1.741-0.184-2.487-0.551s-1.389-0.864-1.927-1.492c-0.539-0.627-0.953-1.347-1.244-2.158
    c-0.29-0.811-0.435-1.677-0.435-2.595c0-1.562,0.407-2.9,1.223-4.019c0.815-1.117,1.886-1.981,3.212-2.594
    c0.967-0.429,2.259-0.865,3.875-1.31C203.401,577.11,205.329,576.766,207.567,576.52z M207.484,586.118
    c0-1.285,0.014-2.54,0.042-3.766c0.027-1.224,0.042-2.479,0.042-3.766c-0.746,0.093-1.499,0.207-2.259,0.345
    c-0.76,0.138-1.5,0.314-2.218,0.528c-0.719,0.215-1.396,0.49-2.031,0.826c-0.636,0.338-1.175,0.735-1.617,1.194
    c-0.691,0.674-1.036,1.546-1.036,2.617c0,1.286,0.297,2.373,0.891,3.261c0.594,0.889,1.513,1.332,2.756,1.332
    c0.884,0,1.81-0.229,2.777-0.689C205.798,587.542,206.682,586.915,207.484,586.118z"/>
  <path fill="#040000" stroke="#FFFFFF" stroke-width="5.6693" d="M219.255,578.541c0-1.958,0.324-3.812,0.974-5.556
    c0.649-1.745,1.533-3.261,2.652-4.547c1.119-1.285,2.438-2.303,3.958-3.054c1.519-0.75,3.15-1.125,4.891-1.125
    c1.879,0,3.592,0.36,5.14,1.079c1.547,0.72,2.866,1.699,3.958,2.939c1.091,1.239,1.934,2.694,2.528,4.362
    c0.594,1.669,0.891,3.452,0.891,5.35c0,1.99-0.325,3.851-0.974,5.58c-0.65,1.729-1.534,3.237-2.653,4.522
    c-1.119,1.286-2.445,2.305-3.979,3.054c-1.534,0.75-3.171,1.125-4.912,1.125c-1.879,0-3.585-0.359-5.119-1.079
    c-1.534-0.719-2.846-1.698-3.938-2.938c-1.092-1.24-1.935-2.693-2.528-4.362C219.552,582.222,219.255,580.44,219.255,578.541z
     M232.27,590.021c1.215,0,2.259-0.321,3.129-0.964c0.87-0.644,1.588-1.47,2.155-2.479c0.566-1.011,0.98-2.143,1.243-3.398
    c0.262-1.255,0.394-2.51,0.394-3.766c0-1.47-0.146-2.969-0.436-4.5s-0.753-2.916-1.388-4.156c-0.636-1.24-1.458-2.258-2.466-3.054
    c-1.009-0.796-2.232-1.194-3.668-1.194c-1.244,0-2.301,0.314-3.171,0.941c-0.871,0.628-1.582,1.446-2.135,2.457
    s-0.96,2.144-1.223,3.398c-0.263,1.256-0.394,2.511-0.394,3.766c0,1.408,0.151,2.878,0.456,4.408
    c0.304,1.531,0.773,2.924,1.409,4.179c0.635,1.256,1.457,2.296,2.466,3.123C229.651,589.608,230.861,590.021,232.27,590.021z"/>
  <path fill="#040000" stroke="#FFFFFF" stroke-width="5.6693" d="M255.937,542.08c-0.083,0.766-0.159,1.669-0.228,2.709
    c-0.07,1.041-0.125,2.074-0.166,3.1c-0.041,1.026-0.076,1.998-0.104,2.916c-0.028,0.919-0.042,1.653-0.042,2.204v14.145
    c1.327-0.979,2.653-1.707,3.979-2.182s2.611-0.712,3.854-0.712c1.631,0,3.115,0.353,4.457,1.057c1.34,0.704,2.486,1.653,3.439,2.847
    c0.953,1.194,1.691,2.571,2.217,4.133s0.789,3.215,0.789,4.96c0,2.235-0.373,4.271-1.119,6.107s-1.762,3.414-3.047,4.729
    c-1.285,1.317-2.799,2.343-4.539,3.077s-3.619,1.102-5.637,1.102c-1.409,0-2.895-0.176-4.455-0.527
    c-1.563-0.353-3.047-0.926-4.456-1.723c0.056-2.326,0.083-4.056,0.083-5.188v-34.441c0-0.888-0.041-1.6-0.125-2.136
    c-0.082-0.535-0.27-0.956-0.559-1.263c-0.291-0.306-0.699-0.535-1.223-0.688c-0.525-0.153-1.244-0.306-2.155-0.459l-0.166-1.332
    c0.635-0.122,1.34-0.291,2.114-0.505c0.773-0.214,1.555-0.443,2.342-0.689c0.788-0.244,1.555-0.505,2.301-0.78
    s1.409-0.551,1.989-0.826L255.937,542.08z M255.397,585.705c0,0.551,0.159,1.079,0.477,1.584c0.317,0.506,0.739,0.949,1.265,1.332
    c0.524,0.383,1.14,0.688,1.844,0.919c0.705,0.229,1.443,0.344,2.219,0.344c1.354,0,2.533-0.313,3.543-0.941
    c1.008-0.627,1.838-1.461,2.486-2.503c0.65-1.04,1.133-2.227,1.451-3.559c0.316-1.332,0.477-2.701,0.477-4.109
    c0-1.47-0.193-2.862-0.58-4.18c-0.387-1.315-0.947-2.472-1.68-3.467c-0.732-0.994-1.629-1.783-2.693-2.365
    c-1.064-0.581-2.273-0.872-3.627-0.872c-0.801,0-1.637,0.107-2.508,0.321c-0.869,0.215-1.761,0.613-2.673,1.194V585.705z"/>
  <path fill="#040000" stroke="#FFFFFF" stroke-width="5.6693" d="M292.658,576.52c0.027-0.214,0.043-0.474,0.043-0.78v-3.353
    c0-1.562-0.34-2.854-1.016-3.88c-0.678-1.025-1.762-1.538-3.254-1.538c-0.803,0-1.486,0.16-2.053,0.481s-1.035,0.743-1.408,1.263
    c-0.373,0.521-0.65,1.118-0.828,1.791c-0.182,0.674-0.27,1.378-0.27,2.112c-0.443,0.398-1.051,0.598-1.824,0.598
    c-0.637,0-1.236-0.161-1.803-0.482s-0.85-0.804-0.85-1.446c0-0.489,0.172-0.995,0.518-1.516s0.801-1.033,1.367-1.538
    c0.566-0.506,1.195-0.987,1.887-1.447c0.689-0.459,1.395-0.856,2.113-1.193c1.852-0.888,3.676-1.332,5.471-1.332
    c0.885,0,1.713,0.131,2.488,0.391c0.773,0.261,1.449,0.674,2.029,1.239c0.582,0.567,1.037,1.294,1.369,2.182
    c0.332,0.889,0.496,1.944,0.496,3.169c0,1.837-0.027,3.957-0.082,6.359c-0.057,2.404-0.082,5.075-0.082,8.014
    c0,1.194,0.207,2.128,0.621,2.801c0.414,0.674,0.994,1.011,1.74,1.011c0.664,0,1.381-0.26,2.156-0.78l0.746,1.239
    c-0.637,0.674-1.418,1.225-2.342,1.653c-0.928,0.429-1.859,0.643-2.799,0.643c-0.967,0-1.857-0.291-2.674-0.872
    c-0.814-0.581-1.361-1.576-1.637-2.985c-0.275,0.215-0.705,0.536-1.285,0.965s-1.242,0.865-1.988,1.309
    c-0.746,0.444-1.549,0.834-2.404,1.171c-0.857,0.337-1.672,0.505-2.445,0.505c-0.912,0-1.742-0.184-2.486-0.551
    c-0.746-0.367-1.389-0.864-1.928-1.492c-0.539-0.627-0.953-1.347-1.244-2.158c-0.289-0.811-0.436-1.677-0.436-2.595
    c0-1.562,0.408-2.9,1.223-4.019c0.814-1.117,1.887-1.981,3.213-2.594c0.967-0.429,2.258-0.865,3.875-1.31
    C288.494,577.11,290.422,576.766,292.658,576.52z M292.576,586.118c0-1.285,0.014-2.54,0.041-3.766
    c0.027-1.224,0.041-2.479,0.041-3.766c-0.744,0.093-1.498,0.207-2.258,0.345s-1.5,0.314-2.217,0.528
    c-0.719,0.215-1.396,0.49-2.031,0.826c-0.637,0.338-1.176,0.735-1.617,1.194c-0.691,0.674-1.035,1.546-1.035,2.617
    c0,1.286,0.295,2.373,0.891,3.261c0.594,0.889,1.512,1.332,2.756,1.332c0.885,0,1.811-0.229,2.777-0.689
    C290.891,587.542,291.775,586.915,292.576,586.118z"/>
  <path fill="#040000" stroke="#FFFFFF" stroke-width="5.6693" d="M305.84,588.276c0-0.52,0.088-1.017,0.27-1.492
    c0.178-0.475,0.42-0.888,0.725-1.239c0.303-0.352,0.656-0.628,1.057-0.827c0.4-0.198,0.836-0.299,1.307-0.299
    c0.441,0,0.869,0.101,1.283,0.299c0.416,0.199,0.773,0.476,1.078,0.827s0.545,0.765,0.727,1.239c0.178,0.476,0.27,0.973,0.27,1.492
    c0,0.521-0.092,1.019-0.27,1.493c-0.182,0.475-0.422,0.888-0.727,1.239s-0.662,0.627-1.078,0.827
    c-0.414,0.198-0.842,0.298-1.283,0.298c-0.471,0-0.906-0.1-1.307-0.298c-0.4-0.2-0.754-0.476-1.057-0.827
    c-0.305-0.352-0.547-0.765-0.725-1.239C305.928,589.294,305.84,588.797,305.84,588.276z"/>
  <path fill="#040000" stroke="#FFFFFF" stroke-width="5.6693" d="M346.748,565.132c0.855,0,1.748,0.016,2.674,0.046
    s2.023,0.046,3.295,0.046c0.967,0,1.816-0.016,2.549-0.046s1.443-0.046,2.135-0.046l0.082,1.469
    c-0.828,0.123-1.492,0.246-1.988,0.368c-0.498,0.122-0.912,0.321-1.244,0.597s-0.629,0.674-0.891,1.193
    c-0.264,0.521-0.561,1.24-0.893,2.159c-0.441,1.193-0.939,2.579-1.492,4.155c-0.553,1.577-1.139,3.283-1.76,5.12
    c-0.623,1.837-1.266,3.759-1.928,5.764c-0.664,2.005-1.342,4.033-2.031,6.084l-1.658,0.184c-1.16-3.397-2.32-6.696-3.482-9.896
    c-1.16-3.199-2.361-6.544-3.605-10.034c-1.188,3.245-2.369,6.445-3.543,9.598c-1.176,3.153-2.355,6.537-3.545,10.148l-1.656,0.184
    c-1.078-3.611-2.156-7.209-3.234-10.791c-1.076-3.582-2.211-7.087-3.398-10.516c-0.305-0.857-0.566-1.546-0.787-2.067
    c-0.221-0.52-0.484-0.918-0.787-1.193c-0.305-0.275-0.691-0.467-1.16-0.574c-0.471-0.106-1.119-0.19-1.949-0.253l0.084-1.698
    c0.91,0,1.865,0.016,2.859,0.046s2.113,0.046,3.357,0.046c1.078,0,2.135-0.016,3.17-0.046c1.037-0.03,1.955-0.046,2.756-0.046
    l0.084,1.515c-1.271,0.123-2.156,0.299-2.652,0.528c-0.498,0.229-0.746,0.651-0.746,1.263c0,0.674,0.096,1.21,0.289,1.607
    c0.664,2.296,1.354,4.661,2.072,7.095s1.465,4.814,2.238,7.141c1.051-2.785,2.156-5.724,3.316-8.816
    c1.16-3.092,2.363-6.307,3.605-9.644l1.824-0.229c1.078,3.062,2.168,6.153,3.273,9.276c1.105,3.122,2.322,6.261,3.648,9.413
    c0.359-1.04,0.738-2.15,1.141-3.329c0.398-1.178,0.793-2.38,1.18-3.604s0.768-2.441,1.141-3.651
    c0.373-1.209,0.711-2.349,1.016-3.421c0.221-0.979,0.332-1.545,0.332-1.699c0-0.643-0.277-1.079-0.83-1.309s-1.533-0.42-2.943-0.574
    L346.748,565.132z"/>
  <path fill="#040000" stroke="#FFFFFF" stroke-width="5.6693" d="M358.934,578.541c0-1.958,0.324-3.812,0.975-5.556
    c0.648-1.745,1.533-3.261,2.652-4.547c1.119-1.285,2.438-2.303,3.959-3.054c1.52-0.75,3.15-1.125,4.891-1.125
    c1.879,0,3.592,0.36,5.139,1.079c1.547,0.72,2.867,1.699,3.959,2.939c1.092,1.239,1.934,2.694,2.527,4.362
    c0.594,1.669,0.893,3.452,0.893,5.35c0,1.99-0.326,3.851-0.975,5.58c-0.65,1.729-1.533,3.237-2.652,4.522
    c-1.119,1.286-2.445,2.305-3.979,3.054c-1.535,0.75-3.172,1.125-4.912,1.125c-1.879,0-3.586-0.359-5.119-1.079
    c-1.533-0.719-2.846-1.698-3.938-2.938s-1.934-2.693-2.529-4.362C359.23,582.222,358.934,580.44,358.934,578.541z M371.949,590.021
    c1.215,0,2.258-0.321,3.129-0.964c0.871-0.644,1.588-1.47,2.154-2.479c0.566-1.011,0.98-2.143,1.244-3.398
    c0.262-1.255,0.395-2.51,0.395-3.766c0-1.47-0.146-2.969-0.436-4.5c-0.291-1.531-0.754-2.916-1.389-4.156
    c-0.637-1.24-1.457-2.258-2.467-3.054c-1.008-0.796-2.23-1.194-3.668-1.194c-1.242,0-2.301,0.314-3.17,0.941
    c-0.871,0.628-1.582,1.446-2.135,2.457s-0.961,2.144-1.223,3.398c-0.264,1.256-0.395,2.511-0.395,3.766
    c0,1.408,0.152,2.878,0.457,4.408c0.303,1.531,0.773,2.924,1.408,4.179c0.635,1.256,1.457,2.296,2.467,3.123
    C369.33,589.608,370.539,590.021,371.949,590.021z"/>
  <path fill="#040000" stroke="#FFFFFF" stroke-width="5.6693" d="M401.791,591.353c-0.441,0-0.975-0.007-1.596-0.023
    c-0.621-0.015-1.291-0.022-2.01-0.022s-1.451-0.007-2.197-0.023c-0.746-0.015-1.451-0.022-2.113-0.022
    c-1.078,0-2.113,0.016-3.109,0.046c-0.994,0.031-1.879,0.046-2.652,0.046l-0.125-1.47c0.912-0.092,1.639-0.222,2.178-0.39
    c0.537-0.168,0.953-0.452,1.242-0.85c0.291-0.397,0.484-0.941,0.58-1.631c0.098-0.688,0.146-1.614,0.146-2.778v-11.894
    c0-0.856-0.043-1.53-0.125-2.021c-0.082-0.489-0.256-0.88-0.518-1.171c-0.264-0.29-0.658-0.512-1.182-0.666
    c-0.525-0.152-1.23-0.306-2.113-0.459l-0.125-1.286c0.746-0.152,1.52-0.328,2.32-0.527s1.576-0.414,2.322-0.644
    s1.443-0.459,2.092-0.688c0.65-0.229,1.182-0.437,1.596-0.62l0.498,0.367c-0.139,0.949-0.221,1.891-0.248,2.824
    c-0.029,0.935-0.041,1.86-0.041,2.778c0.883-1.193,1.691-2.181,2.424-2.962c0.732-0.78,1.402-1.393,2.01-1.837
    c0.607-0.443,1.168-0.75,1.68-0.918c0.51-0.168,1.016-0.253,1.512-0.253c0.719,0,1.383,0.199,1.99,0.597
    c0.607,0.398,0.912,1.057,0.912,1.975c0,0.613-0.277,1.286-0.83,2.021c-0.553,0.735-1.285,1.409-2.195,2.021
    c-0.498-0.49-1.016-0.865-1.555-1.126c-0.539-0.26-1.127-0.39-1.762-0.39c-0.637,0-1.326,0.306-2.072,0.918
    c-0.746,0.613-1.355,1.501-1.824,2.664c-0.139,0.337-0.221,0.636-0.248,0.896c-0.029,0.26-0.041,0.604-0.041,1.033v11.25
    c0,0.735,0.047,1.325,0.145,1.769c0.096,0.444,0.324,0.788,0.684,1.033s0.885,0.413,1.574,0.505
    c0.691,0.092,1.645,0.169,2.861,0.229L401.791,591.353z"/>
  <path fill="#040000" stroke="#FFFFFF" stroke-width="5.6693" d="M411.117,588.276c0-0.52,0.09-1.017,0.27-1.492
    c0.18-0.475,0.422-0.888,0.725-1.239c0.305-0.352,0.656-0.628,1.059-0.827c0.4-0.198,0.834-0.299,1.305-0.299
    c0.441,0,0.871,0.101,1.285,0.299c0.414,0.199,0.773,0.476,1.078,0.827c0.303,0.352,0.545,0.765,0.725,1.239
    c0.18,0.476,0.27,0.973,0.27,1.492c0,0.521-0.09,1.019-0.27,1.493s-0.422,0.888-0.725,1.239c-0.305,0.352-0.664,0.627-1.078,0.827
    c-0.414,0.198-0.844,0.298-1.285,0.298c-0.471,0-0.904-0.1-1.305-0.298c-0.402-0.2-0.754-0.476-1.059-0.827
    c-0.303-0.352-0.545-0.765-0.725-1.239S411.117,588.797,411.117,588.276z"/>
  <path fill="#040000" stroke="#FFFFFF" stroke-width="5.6693" d="M432.172,564.626c-0.082,0.766-0.152,1.593-0.207,2.48
    s-0.104,1.768-0.145,2.64c-0.041,0.873-0.068,1.692-0.082,2.457c-0.016,0.766-0.021,1.424-0.021,1.975v11.756
    c0,1.562,0.006,3.008,0.021,4.34c0.014,1.332,0.02,2.457,0.02,3.375v1.883c0,1.378-0.111,2.687-0.332,3.927
    c-0.221,1.239-0.496,2.334-0.828,3.283c-0.637,1.745-1.734,3.49-3.295,5.235c-1.563,1.744-3.393,3.306-5.492,4.684l-0.994-1.653
    c1.658-1.286,2.928-2.641,3.813-4.064c0.885-1.423,1.527-2.938,1.928-4.546s0.621-3.322,0.662-5.143
    c0.043-1.822,0.063-3.789,0.063-5.901v-19.195c0-0.856-0.041-1.53-0.123-2.021c-0.084-0.489-0.256-0.872-0.52-1.147
    c-0.262-0.276-0.648-0.49-1.16-0.644c-0.512-0.152-1.182-0.306-2.01-0.459l-0.125-1.332c0.857-0.184,1.721-0.374,2.592-0.573
    c0.869-0.199,1.684-0.406,2.445-0.62c0.76-0.214,1.436-0.414,2.029-0.598c0.596-0.184,1.043-0.352,1.348-0.505L432.172,564.626z
     M426.369,553.238c0-1.01,0.277-1.828,0.83-2.456c0.553-0.627,1.285-0.941,2.197-0.941c0.967,0,1.732,0.314,2.299,0.941
    c0.566,0.628,0.85,1.446,0.85,2.456c0,1.011-0.283,1.83-0.85,2.457c-0.566,0.628-1.332,0.941-2.299,0.941
    c-0.912,0-1.645-0.313-2.197-0.941C426.646,555.068,426.369,554.249,426.369,553.238z"/>
  <path fill="#040000" stroke="#FFFFFF" stroke-width="5.6693" d="M446.1,564.626c-0.057,0.521-0.111,0.98-0.166,1.378
    c-0.057,0.398-0.07,0.98-0.043,1.745c1.271-1.225,2.57-2.112,3.896-2.663c1.326-0.552,2.639-0.827,3.938-0.827
    c1.438,0,2.813,0.321,4.125,0.965c1.313,0.643,2.465,1.531,3.461,2.663c0.994,1.133,1.789,2.487,2.383,4.064s0.891,3.283,0.891,5.12
    c0,2.234-0.379,4.286-1.139,6.153c-0.762,1.867-1.797,3.467-3.109,4.799c-1.313,1.331-2.84,2.373-4.58,3.122
    c-1.74,0.75-3.605,1.125-5.596,1.125c-0.193,0-0.449-0.016-0.766-0.046c-0.318-0.03-0.672-0.076-1.059-0.138
    s-0.793-0.146-1.223-0.252c-0.428-0.107-0.85-0.237-1.264-0.391v14.925c0,0.734,0.049,1.331,0.145,1.791
    c0.098,0.459,0.332,0.818,0.705,1.079c0.373,0.26,0.939,0.451,1.699,0.573s1.803,0.214,3.131,0.276l-0.084,1.698
    c-0.441,0-0.994-0.008-1.658-0.022c-0.662-0.016-1.381-0.023-2.154-0.023c-0.746,0-1.508-0.008-2.279-0.022
    c-0.775-0.016-1.492-0.023-2.156-0.023c-1.078,0-2.143,0.016-3.191,0.046c-1.051,0.03-1.963,0.046-2.736,0.046l-0.123-1.469
    c0.939-0.092,1.691-0.229,2.258-0.413c0.566-0.185,1.002-0.468,1.307-0.85c0.303-0.384,0.504-0.919,0.6-1.607
    c0.098-0.689,0.146-1.615,0.146-2.778v-32.329c0-0.856-0.041-1.53-0.125-2.021c-0.082-0.489-0.277-0.88-0.58-1.171
    c-0.305-0.29-0.74-0.512-1.305-0.666c-0.568-0.152-1.334-0.306-2.301-0.459l-0.125-1.286c0.828-0.184,1.672-0.382,2.529-0.597
    c0.855-0.214,1.678-0.437,2.465-0.666s1.492-0.451,2.115-0.666c0.621-0.214,1.111-0.397,1.471-0.551L446.1,564.626z
     M445.891,587.083c0.746,0.949,1.645,1.623,2.695,2.021c1.049,0.398,2.113,0.597,3.191,0.597c1.326,0,2.473-0.29,3.439-0.872
    c0.967-0.581,1.768-1.37,2.404-2.365c0.635-0.994,1.111-2.136,1.43-3.421c0.318-1.286,0.477-2.633,0.477-4.041
    c0-1.438-0.18-2.824-0.539-4.156s-0.877-2.51-1.553-3.536c-0.678-1.025-1.521-1.844-2.529-2.457
    c-1.01-0.611-2.162-0.918-3.461-0.918c-2.293,0-4.145,0.658-5.555,1.975V587.083z"/>
  <path fill="#040000" stroke="#FFFFFF" stroke-width="5.6693" d="M482.49,545.385l2.859,0.506l-13.098,51.937l-2.818-0.505
    L482.49,545.385z"/>
  <path fill="#040000" d="M24.492,542.08c-0.111,0.766-0.201,1.669-0.27,2.709c-0.069,1.041-0.125,2.082-0.166,3.123
    c-0.042,1.041-0.077,2.021-0.104,2.938c-0.028,0.919-0.042,1.653-0.042,2.204v14.925c1.41-1.04,2.943-1.921,4.601-2.641
    c1.658-0.719,3.274-1.079,4.849-1.079c0.995,0,1.934,0.169,2.818,0.505c0.884,0.338,1.658,0.881,2.321,1.631
    s1.188,1.729,1.575,2.938c0.386,1.21,0.58,2.687,0.58,4.432v12.353c0,0.735,0.034,1.325,0.104,1.769
    c0.069,0.444,0.242,0.788,0.518,1.033c0.276,0.245,0.69,0.413,1.244,0.505c0.552,0.092,1.298,0.169,2.238,0.229l-0.083,1.699
    c-0.885,0-1.9-0.015-3.046-0.046c-1.147-0.03-2.383-0.046-3.709-0.046c-1.078,0-2.101,0.016-3.067,0.046
    c-0.967,0.031-1.838,0.046-2.611,0.046l-0.124-1.47c0.856-0.092,1.554-0.214,2.093-0.367c0.539-0.152,0.954-0.405,1.244-0.758
    c0.29-0.352,0.483-0.856,0.58-1.516c0.097-0.657,0.145-1.568,0.145-2.732v-9.688c0-2.48-0.497-4.255-1.492-5.327
    c-0.995-1.071-2.28-1.607-3.855-1.607c-1.05,0-2.169,0.207-3.357,0.62c-1.188,0.413-2.377,1.003-3.565,1.768v15.843
    c0,0.735,0.042,1.325,0.125,1.769c0.083,0.444,0.262,0.788,0.539,1.033c0.276,0.245,0.684,0.413,1.223,0.505
    c0.539,0.092,1.264,0.169,2.176,0.229l-0.124,1.699c-0.885,0-1.873-0.015-2.964-0.046c-1.092-0.03-2.3-0.046-3.626-0.046
    c-1.078,0-2.128,0.016-3.15,0.046c-1.023,0.031-1.921,0.046-2.694,0.046l-0.083-1.47c0.912-0.092,1.637-0.229,2.176-0.413
    c0.539-0.184,0.959-0.467,1.264-0.85c0.304-0.383,0.504-0.918,0.601-1.607c0.096-0.688,0.145-1.614,0.145-2.778v-34.211
    c0-0.888-0.049-1.584-0.145-2.09c-0.097-0.505-0.291-0.896-0.581-1.171s-0.725-0.489-1.306-0.643
    c-0.58-0.153-1.34-0.321-2.279-0.505l-0.125-1.332c0.773-0.153,1.596-0.337,2.466-0.551c0.87-0.214,1.706-0.437,2.507-0.666
    c0.801-0.229,1.554-0.459,2.259-0.689c0.705-0.229,1.278-0.451,1.72-0.665L24.492,542.08z"/>
  <path fill="#040000" d="M46.791,566.28l3.772-0.138v-7.348l-0.042-0.505c0.415-0.184,0.843-0.374,1.285-0.574
    c0.442-0.198,0.863-0.39,1.264-0.574c0.4-0.184,0.76-0.359,1.078-0.527c0.317-0.168,0.56-0.313,0.726-0.437l0.456,0.275
    c-0.083,0.551-0.145,1.271-0.187,2.158c-0.042,0.889-0.063,2.112-0.063,3.674v3.766l11.688-0.184v-3.995
    c0-0.765-0.007-1.546-0.021-2.342c-0.015-0.796-0.021-1.562-0.021-2.296c0.415-0.185,0.843-0.375,1.285-0.574
    c0.441-0.199,0.87-0.391,1.285-0.574s0.78-0.359,1.098-0.528c0.317-0.168,0.56-0.313,0.726-0.437l0.456,0.276
    c-0.056,0.766-0.104,1.63-0.145,2.594c-0.042,0.965-0.077,1.929-0.104,2.894c-0.028,0.964-0.048,1.883-0.062,2.755
    c-0.014,0.873-0.021,1.585-0.021,2.136l7.087-0.184l0.332,0.321l-0.125,2.342h-7.294v14.787c0,1.193,0.104,2.174,0.311,2.938
    c0.208,0.766,0.498,1.378,0.871,1.837s0.808,0.773,1.306,0.941c0.497,0.169,1.036,0.253,1.616,0.253
    c0.607,0,1.244-0.076,1.907-0.229s1.312-0.306,1.948-0.46l0.29,1.653c-1.078,0.582-2.238,1.079-3.482,1.493
    c-1.243,0.413-2.445,0.619-3.606,0.619c-0.802,0-1.541-0.114-2.217-0.344c-0.677-0.229-1.278-0.62-1.803-1.171
    c-0.525-0.552-0.933-1.278-1.223-2.182c-0.29-0.902-0.435-2.013-0.435-3.329v-1.24c0-0.551,0.006-1.438,0.021-2.663
    c0.013-1.225,0.021-2.862,0.021-4.914v-7.99H55.08v14.787c0,1.193,0.104,2.174,0.311,2.938c0.207,0.766,0.498,1.378,0.871,1.837
    s0.808,0.773,1.306,0.941c0.497,0.169,1.036,0.253,1.616,0.253c0.607,0,1.244-0.076,1.907-0.229s1.312-0.306,1.948-0.46l0.291,1.653
    c-1.078,0.582-2.238,1.079-3.482,1.493c-1.243,0.413-2.445,0.619-3.606,0.619c-0.802,0-1.541-0.114-2.217-0.344
    c-0.678-0.229-1.278-0.62-1.803-1.171c-0.525-0.552-0.933-1.278-1.223-2.182c-0.29-0.902-0.435-2.013-0.435-3.329v-1.24
    c0-0.551,0.006-1.438,0.021-2.663c0.014-1.225,0.021-2.862,0.021-4.914v-7.99h-3.73l-0.29-0.321L46.791,566.28z"/>
  <path fill="#040000" d="M90.062,564.626c-0.056,0.521-0.111,0.98-0.166,1.378c-0.056,0.398-0.069,0.98-0.042,1.745
    c1.271-1.225,2.57-2.112,3.896-2.663c1.326-0.552,2.638-0.827,3.938-0.827c1.437,0,2.812,0.321,4.124,0.965
    c1.312,0.643,2.466,1.531,3.461,2.663c0.995,1.133,1.789,2.487,2.383,4.064c0.594,1.577,0.891,3.283,0.891,5.12
    c0,2.234-0.38,4.286-1.14,6.153c-0.761,1.867-1.797,3.467-3.109,4.799c-1.313,1.331-2.839,2.373-4.58,3.122
    c-1.741,0.75-3.606,1.125-5.595,1.125c-0.194,0-0.45-0.016-0.767-0.046c-0.318-0.03-0.67-0.076-1.057-0.138
    c-0.387-0.062-0.795-0.146-1.223-0.252c-0.429-0.107-0.85-0.237-1.264-0.391v14.925c0,0.734,0.048,1.331,0.145,1.791
    c0.097,0.459,0.332,0.818,0.705,1.079c0.373,0.26,0.939,0.451,1.699,0.573c0.76,0.122,1.803,0.214,3.129,0.276l-0.083,1.698
    c-0.442,0-0.995-0.008-1.658-0.022c-0.663-0.016-1.382-0.023-2.155-0.023c-0.746,0-1.506-0.008-2.28-0.022
    c-0.774-0.016-1.492-0.023-2.155-0.023c-1.078,0-2.142,0.016-3.191,0.046c-1.05,0.03-1.962,0.046-2.735,0.046l-0.125-1.469
    c0.939-0.092,1.692-0.229,2.259-0.413c0.566-0.185,1.001-0.468,1.306-0.85c0.304-0.384,0.504-0.919,0.601-1.607
    c0.096-0.689,0.145-1.615,0.145-2.778v-32.329c0-0.856-0.042-1.53-0.125-2.021c-0.083-0.489-0.276-0.88-0.58-1.171
    c-0.304-0.29-0.74-0.512-1.306-0.666c-0.567-0.152-1.333-0.306-2.3-0.459l-0.125-1.286c0.829-0.184,1.672-0.382,2.528-0.597
    c0.856-0.214,1.679-0.437,2.466-0.666s1.492-0.451,2.114-0.666c0.622-0.214,1.112-0.397,1.471-0.551L90.062,564.626z
     M89.855,587.083c0.746,0.949,1.644,1.623,2.694,2.021c1.05,0.398,2.114,0.597,3.191,0.597c1.327,0,2.473-0.29,3.44-0.872
    c0.967-0.581,1.768-1.37,2.404-2.365c0.635-0.994,1.112-2.136,1.43-3.421c0.317-1.286,0.477-2.633,0.477-4.041
    c0-1.438-0.18-2.824-0.539-4.156c-0.359-1.332-0.877-2.51-1.554-3.536c-0.677-1.025-1.52-1.844-2.528-2.457
    c-1.009-0.611-2.162-0.918-3.461-0.918c-2.294,0-4.145,0.658-5.554,1.975V587.083z"/>
  <path fill="#040000" d="M128.028,572.985c-0.083-0.949-0.297-1.829-0.643-2.641c-0.346-0.812-0.802-1.508-1.368-2.09
    c-0.566-0.581-1.223-1.033-1.969-1.354s-1.548-0.482-2.404-0.482c-0.525,0-1.03,0.092-1.513,0.275s-0.912,0.444-1.285,0.781
    s-0.67,0.758-0.891,1.263c-0.222,0.505-0.332,1.079-0.332,1.722c0,0.766,0.172,1.432,0.518,1.998
    c0.345,0.566,0.801,1.072,1.368,1.516c0.566,0.443,1.216,0.834,1.948,1.171c0.732,0.337,1.485,0.674,2.259,1.01
    c0.856,0.398,1.706,0.819,2.549,1.263c0.842,0.444,1.596,0.965,2.259,1.562s1.195,1.309,1.596,2.136
    c0.4,0.826,0.601,1.807,0.601,2.938c0,1.439-0.277,2.672-0.829,3.697c-0.553,1.025-1.271,1.875-2.155,2.548
    c-0.885,0.674-1.886,1.172-3.005,1.493s-2.246,0.481-3.378,0.481c-0.719,0-1.444-0.062-2.176-0.184
    c-0.732-0.122-1.417-0.26-2.052-0.413c-0.58-0.153-1.14-0.298-1.679-0.437c-0.539-0.138-1.126-0.236-1.761-0.298
    c-0.028-0.521-0.077-1.179-0.145-1.975c-0.069-0.796-0.145-1.607-0.228-2.434c-0.083-0.827-0.173-1.615-0.27-2.365
    c-0.097-0.75-0.201-1.339-0.311-1.769l1.41-0.413c0.386,1.041,0.814,2.052,1.285,3.031c0.47,0.979,1.029,1.845,1.679,2.595
    c0.649,0.75,1.389,1.354,2.217,1.813c0.829,0.459,1.81,0.688,2.943,0.688c1.078,0,2.031-0.328,2.86-0.987
    c0.829-0.657,1.244-1.66,1.244-3.008c0-0.765-0.16-1.446-0.477-2.043c-0.318-0.598-0.746-1.125-1.285-1.585
    c-0.539-0.459-1.147-0.864-1.824-1.217c-0.677-0.352-1.389-0.695-2.134-1.033c-0.857-0.397-1.707-0.818-2.549-1.263
    c-0.843-0.443-1.596-0.964-2.259-1.562c-0.663-0.597-1.202-1.309-1.617-2.135c-0.414-0.827-0.622-1.821-0.622-2.985
    c0-1.407,0.27-2.617,0.808-3.628c0.539-1.01,1.229-1.844,2.073-2.502c0.842-0.658,1.803-1.141,2.88-1.447
    c1.078-0.306,2.155-0.459,3.233-0.459c1.105,0,2.203,0.123,3.295,0.367c1.091,0.246,2.327,0.398,3.709,0.46
    c-0.083,0.979-0.139,1.905-0.166,2.777c-0.028,0.873-0.042,1.814-0.042,2.824v2.251L128.028,572.985z"/>
  <path fill="#040000" d="M137.354,567.979c0-0.521,0.089-1.018,0.27-1.492c0.179-0.475,0.421-0.888,0.725-1.24
    c0.304-0.352,0.656-0.627,1.057-0.826c0.4-0.199,0.835-0.299,1.306-0.299c0.441,0,0.871,0.1,1.285,0.299
    c0.415,0.199,0.773,0.475,1.078,0.826c0.304,0.353,0.545,0.766,0.726,1.24c0.179,0.475,0.27,0.972,0.27,1.492
    s-0.09,1.019-0.27,1.492c-0.18,0.476-0.422,0.889-0.726,1.24c-0.304,0.353-0.663,0.628-1.078,0.826
    c-0.414,0.2-0.843,0.299-1.285,0.299c-0.47,0-0.905-0.099-1.306-0.299c-0.401-0.198-0.753-0.474-1.057-0.826
    c-0.304-0.352-0.546-0.765-0.725-1.24C137.443,568.998,137.354,568.5,137.354,567.979z M137.354,588.276
    c0-0.52,0.089-1.017,0.27-1.492c0.179-0.475,0.421-0.888,0.725-1.239s0.656-0.628,1.057-0.827c0.4-0.198,0.835-0.299,1.306-0.299
    c0.441,0,0.871,0.101,1.285,0.299c0.415,0.199,0.773,0.476,1.078,0.827c0.304,0.352,0.545,0.765,0.726,1.239
    c0.179,0.476,0.27,0.973,0.27,1.492c0,0.521-0.09,1.019-0.27,1.493c-0.18,0.475-0.422,0.888-0.726,1.239
    c-0.304,0.352-0.663,0.627-1.078,0.827c-0.414,0.198-0.843,0.298-1.285,0.298c-0.47,0-0.905-0.1-1.306-0.298
    c-0.401-0.2-0.753-0.476-1.057-0.827s-0.546-0.765-0.725-1.239C137.443,589.294,137.354,588.797,137.354,588.276z"/>
  <path fill="#040000" d="M162.264,545.385l2.86,0.506l-13.098,51.937l-2.818-0.505L162.264,545.385z"/>
  <path fill="#040000" d="M184.646,545.385l2.86,0.506l-13.098,51.937l-2.818-0.505L184.646,545.385z"/>
  <path fill="#040000" d="M207.567,576.52c0.027-0.214,0.042-0.474,0.042-0.78v-3.353c0-1.562-0.339-2.854-1.016-3.88
    c-0.677-1.025-1.761-1.538-3.253-1.538c-0.802,0-1.486,0.16-2.052,0.481c-0.567,0.321-1.036,0.743-1.409,1.263
    c-0.373,0.521-0.65,1.118-0.829,1.791c-0.18,0.674-0.27,1.378-0.27,2.112c-0.442,0.398-1.05,0.598-1.824,0.598
    c-0.636,0-1.237-0.161-1.803-0.482c-0.567-0.321-0.85-0.804-0.85-1.446c0-0.489,0.172-0.995,0.518-1.516
    c0.345-0.521,0.801-1.033,1.368-1.538c0.566-0.506,1.195-0.987,1.886-1.447c0.69-0.459,1.395-0.856,2.114-1.193
    c1.851-0.888,3.675-1.332,5.471-1.332c0.884,0,1.713,0.131,2.487,0.391c0.773,0.261,1.451,0.674,2.031,1.239
    c0.58,0.567,1.036,1.294,1.368,2.182c0.332,0.889,0.498,1.944,0.498,3.169c0,1.837-0.028,3.957-0.083,6.359
    c-0.056,2.404-0.083,5.075-0.083,8.014c0,1.194,0.207,2.128,0.622,2.801c0.415,0.674,0.995,1.011,1.741,1.011
    c0.663,0,1.381-0.26,2.155-0.78l0.746,1.239c-0.636,0.674-1.416,1.225-2.342,1.653s-1.858,0.643-2.797,0.643
    c-0.968,0-1.859-0.291-2.673-0.872c-0.815-0.581-1.361-1.576-1.637-2.985c-0.277,0.215-0.705,0.536-1.285,0.965
    c-0.58,0.429-1.243,0.865-1.989,1.309c-0.746,0.444-1.548,0.834-2.404,1.171s-1.672,0.505-2.445,0.505
    c-0.912,0-1.741-0.184-2.487-0.551s-1.389-0.864-1.927-1.492c-0.539-0.627-0.953-1.347-1.244-2.158
    c-0.29-0.811-0.435-1.677-0.435-2.595c0-1.562,0.407-2.9,1.223-4.019c0.815-1.117,1.886-1.981,3.212-2.594
    c0.967-0.429,2.259-0.865,3.875-1.31C203.401,577.11,205.329,576.766,207.567,576.52z M207.484,586.118
    c0-1.285,0.014-2.54,0.042-3.766c0.027-1.224,0.042-2.479,0.042-3.766c-0.746,0.093-1.499,0.207-2.259,0.345
    c-0.76,0.138-1.5,0.314-2.218,0.528c-0.719,0.215-1.396,0.49-2.031,0.826c-0.636,0.338-1.175,0.735-1.617,1.194
    c-0.691,0.674-1.036,1.546-1.036,2.617c0,1.286,0.297,2.373,0.891,3.261c0.594,0.889,1.513,1.332,2.756,1.332
    c0.884,0,1.81-0.229,2.777-0.689C205.798,587.542,206.682,586.915,207.484,586.118z"/>
  <path fill="#040000" d="M219.255,578.541c0-1.958,0.324-3.812,0.974-5.556c0.649-1.745,1.533-3.261,2.652-4.547
    c1.119-1.285,2.438-2.303,3.958-3.054c1.519-0.75,3.15-1.125,4.891-1.125c1.879,0,3.592,0.36,5.14,1.079
    c1.547,0.72,2.866,1.699,3.958,2.939c1.091,1.239,1.934,2.694,2.528,4.362c0.594,1.669,0.891,3.452,0.891,5.35
    c0,1.99-0.325,3.851-0.974,5.58c-0.65,1.729-1.534,3.237-2.653,4.522c-1.119,1.286-2.445,2.305-3.979,3.054
    c-1.534,0.75-3.171,1.125-4.912,1.125c-1.879,0-3.585-0.359-5.119-1.079c-1.534-0.719-2.846-1.698-3.938-2.938
    c-1.092-1.24-1.935-2.693-2.528-4.362C219.552,582.222,219.255,580.44,219.255,578.541z M232.27,590.021
    c1.215,0,2.259-0.321,3.129-0.964c0.87-0.644,1.588-1.47,2.155-2.479c0.566-1.011,0.98-2.143,1.243-3.398
    c0.262-1.255,0.394-2.51,0.394-3.766c0-1.47-0.146-2.969-0.436-4.5s-0.753-2.916-1.388-4.156c-0.636-1.24-1.458-2.258-2.466-3.054
    c-1.009-0.796-2.232-1.194-3.668-1.194c-1.244,0-2.301,0.314-3.171,0.941c-0.871,0.628-1.582,1.446-2.135,2.457
    s-0.96,2.144-1.223,3.398c-0.263,1.256-0.394,2.511-0.394,3.766c0,1.408,0.151,2.878,0.456,4.408
    c0.304,1.531,0.773,2.924,1.409,4.179c0.635,1.256,1.457,2.296,2.466,3.123C229.651,589.608,230.861,590.021,232.27,590.021z"/>
  <path fill="#040000" d="M255.937,542.08c-0.083,0.766-0.159,1.669-0.228,2.709c-0.07,1.041-0.125,2.074-0.166,3.1
    c-0.041,1.026-0.076,1.998-0.104,2.916c-0.028,0.919-0.042,1.653-0.042,2.204v14.145c1.327-0.979,2.653-1.707,3.979-2.182
    s2.611-0.712,3.854-0.712c1.631,0,3.115,0.353,4.457,1.057c1.34,0.704,2.486,1.653,3.439,2.847c0.953,1.194,1.691,2.571,2.217,4.133
    s0.789,3.215,0.789,4.96c0,2.235-0.373,4.271-1.119,6.107s-1.762,3.414-3.047,4.729c-1.285,1.317-2.799,2.343-4.539,3.077
    s-3.619,1.102-5.637,1.102c-1.409,0-2.895-0.176-4.455-0.527c-1.563-0.353-3.047-0.926-4.456-1.723
    c0.056-2.326,0.083-4.056,0.083-5.188v-34.441c0-0.888-0.041-1.6-0.125-2.136c-0.082-0.535-0.27-0.956-0.559-1.263
    c-0.291-0.306-0.699-0.535-1.223-0.688c-0.525-0.153-1.244-0.306-2.155-0.459l-0.166-1.332c0.635-0.122,1.34-0.291,2.114-0.505
    c0.773-0.214,1.555-0.443,2.342-0.689c0.788-0.244,1.555-0.505,2.301-0.78s1.409-0.551,1.989-0.826L255.937,542.08z
     M255.397,585.705c0,0.551,0.159,1.079,0.477,1.584c0.317,0.506,0.739,0.949,1.265,1.332c0.524,0.383,1.14,0.688,1.844,0.919
    c0.705,0.229,1.443,0.344,2.219,0.344c1.354,0,2.533-0.313,3.543-0.941c1.008-0.627,1.838-1.461,2.486-2.503
    c0.65-1.04,1.133-2.227,1.451-3.559c0.316-1.332,0.477-2.701,0.477-4.109c0-1.47-0.193-2.862-0.58-4.18
    c-0.387-1.315-0.947-2.472-1.68-3.467c-0.732-0.994-1.629-1.783-2.693-2.365c-1.064-0.581-2.273-0.872-3.627-0.872
    c-0.801,0-1.637,0.107-2.508,0.321c-0.869,0.215-1.761,0.613-2.673,1.194V585.705z"/>
  <path fill="#040000" d="M292.658,576.52c0.027-0.214,0.043-0.474,0.043-0.78v-3.353c0-1.562-0.34-2.854-1.016-3.88
    c-0.678-1.025-1.762-1.538-3.254-1.538c-0.803,0-1.486,0.16-2.053,0.481s-1.035,0.743-1.408,1.263
    c-0.373,0.521-0.65,1.118-0.828,1.791c-0.182,0.674-0.27,1.378-0.27,2.112c-0.443,0.398-1.051,0.598-1.824,0.598
    c-0.637,0-1.236-0.161-1.803-0.482s-0.85-0.804-0.85-1.446c0-0.489,0.172-0.995,0.518-1.516s0.801-1.033,1.367-1.538
    c0.566-0.506,1.195-0.987,1.887-1.447c0.689-0.459,1.395-0.856,2.113-1.193c1.852-0.888,3.676-1.332,5.471-1.332
    c0.885,0,1.713,0.131,2.488,0.391c0.773,0.261,1.449,0.674,2.029,1.239c0.582,0.567,1.037,1.294,1.369,2.182
    c0.332,0.889,0.496,1.944,0.496,3.169c0,1.837-0.027,3.957-0.082,6.359c-0.057,2.404-0.082,5.075-0.082,8.014
    c0,1.194,0.207,2.128,0.621,2.801c0.414,0.674,0.994,1.011,1.74,1.011c0.664,0,1.381-0.26,2.156-0.78l0.746,1.239
    c-0.637,0.674-1.418,1.225-2.342,1.653c-0.928,0.429-1.859,0.643-2.799,0.643c-0.967,0-1.857-0.291-2.674-0.872
    c-0.814-0.581-1.361-1.576-1.637-2.985c-0.275,0.215-0.705,0.536-1.285,0.965s-1.242,0.865-1.988,1.309
    c-0.746,0.444-1.549,0.834-2.404,1.171c-0.857,0.337-1.672,0.505-2.445,0.505c-0.912,0-1.742-0.184-2.486-0.551
    c-0.746-0.367-1.389-0.864-1.928-1.492c-0.539-0.627-0.953-1.347-1.244-2.158c-0.289-0.811-0.436-1.677-0.436-2.595
    c0-1.562,0.408-2.9,1.223-4.019c0.814-1.117,1.887-1.981,3.213-2.594c0.967-0.429,2.258-0.865,3.875-1.31
    C288.494,577.11,290.422,576.766,292.658,576.52z M292.576,586.118c0-1.285,0.014-2.54,0.041-3.766
    c0.027-1.224,0.041-2.479,0.041-3.766c-0.744,0.093-1.498,0.207-2.258,0.345s-1.5,0.314-2.217,0.528
    c-0.719,0.215-1.396,0.49-2.031,0.826c-0.637,0.338-1.176,0.735-1.617,1.194c-0.691,0.674-1.035,1.546-1.035,2.617
    c0,1.286,0.295,2.373,0.891,3.261c0.594,0.889,1.512,1.332,2.756,1.332c0.885,0,1.811-0.229,2.777-0.689
    C290.891,587.542,291.775,586.915,292.576,586.118z"/>
  <path fill="#040000" d="M305.84,588.276c0-0.52,0.088-1.017,0.27-1.492c0.178-0.475,0.42-0.888,0.725-1.239
    c0.303-0.352,0.656-0.628,1.057-0.827c0.4-0.198,0.836-0.299,1.307-0.299c0.441,0,0.869,0.101,1.283,0.299
    c0.416,0.199,0.773,0.476,1.078,0.827s0.545,0.765,0.727,1.239c0.178,0.476,0.27,0.973,0.27,1.492c0,0.521-0.092,1.019-0.27,1.493
    c-0.182,0.475-0.422,0.888-0.727,1.239s-0.662,0.627-1.078,0.827c-0.414,0.198-0.842,0.298-1.283,0.298
    c-0.471,0-0.906-0.1-1.307-0.298c-0.4-0.2-0.754-0.476-1.057-0.827c-0.305-0.352-0.547-0.765-0.725-1.239
    C305.928,589.294,305.84,588.797,305.84,588.276z"/>
  <path fill="#040000" d="M346.748,565.132c0.855,0,1.748,0.016,2.674,0.046s2.023,0.046,3.295,0.046c0.967,0,1.816-0.016,2.549-0.046
    s1.443-0.046,2.135-0.046l0.082,1.469c-0.828,0.123-1.492,0.246-1.988,0.368c-0.498,0.122-0.912,0.321-1.244,0.597
    s-0.629,0.674-0.891,1.193c-0.264,0.521-0.561,1.24-0.893,2.159c-0.441,1.193-0.939,2.579-1.492,4.155
    c-0.553,1.577-1.139,3.283-1.76,5.12c-0.623,1.837-1.266,3.759-1.928,5.764c-0.664,2.005-1.342,4.033-2.031,6.084l-1.658,0.184
    c-1.16-3.397-2.32-6.696-3.482-9.896c-1.16-3.199-2.361-6.544-3.605-10.034c-1.188,3.245-2.369,6.445-3.543,9.598
    c-1.176,3.153-2.355,6.537-3.545,10.148l-1.656,0.184c-1.078-3.611-2.156-7.209-3.234-10.791c-1.076-3.582-2.211-7.087-3.398-10.516
    c-0.305-0.857-0.566-1.546-0.787-2.067c-0.221-0.52-0.484-0.918-0.787-1.193c-0.305-0.275-0.691-0.467-1.16-0.574
    c-0.471-0.106-1.119-0.19-1.949-0.253l0.084-1.698c0.91,0,1.865,0.016,2.859,0.046s2.113,0.046,3.357,0.046
    c1.078,0,2.135-0.016,3.17-0.046c1.037-0.03,1.955-0.046,2.756-0.046l0.084,1.515c-1.271,0.123-2.156,0.299-2.652,0.528
    c-0.498,0.229-0.746,0.651-0.746,1.263c0,0.674,0.096,1.21,0.289,1.607c0.664,2.296,1.354,4.661,2.072,7.095
    s1.465,4.814,2.238,7.141c1.051-2.785,2.156-5.724,3.316-8.816c1.16-3.092,2.363-6.307,3.605-9.644l1.824-0.229
    c1.078,3.062,2.168,6.153,3.273,9.276c1.105,3.122,2.322,6.261,3.648,9.413c0.359-1.04,0.738-2.15,1.141-3.329
    c0.398-1.178,0.793-2.38,1.18-3.604s0.768-2.441,1.141-3.651c0.373-1.209,0.711-2.349,1.016-3.421
    c0.221-0.979,0.332-1.545,0.332-1.699c0-0.643-0.277-1.079-0.83-1.309s-1.533-0.42-2.943-0.574L346.748,565.132z"/>
  <path fill="#040000" d="M358.934,578.541c0-1.958,0.324-3.812,0.975-5.556c0.648-1.745,1.533-3.261,2.652-4.547
    c1.119-1.285,2.438-2.303,3.959-3.054c1.52-0.75,3.15-1.125,4.891-1.125c1.879,0,3.592,0.36,5.139,1.079
    c1.547,0.72,2.867,1.699,3.959,2.939c1.092,1.239,1.934,2.694,2.527,4.362c0.594,1.669,0.893,3.452,0.893,5.35
    c0,1.99-0.326,3.851-0.975,5.58c-0.65,1.729-1.533,3.237-2.652,4.522c-1.119,1.286-2.445,2.305-3.979,3.054
    c-1.535,0.75-3.172,1.125-4.912,1.125c-1.879,0-3.586-0.359-5.119-1.079c-1.533-0.719-2.846-1.698-3.938-2.938
    s-1.934-2.693-2.529-4.362C359.23,582.222,358.934,580.44,358.934,578.541z M371.949,590.021c1.215,0,2.258-0.321,3.129-0.964
    c0.871-0.644,1.588-1.47,2.154-2.479c0.566-1.011,0.98-2.143,1.244-3.398c0.262-1.255,0.395-2.51,0.395-3.766
    c0-1.47-0.146-2.969-0.436-4.5c-0.291-1.531-0.754-2.916-1.389-4.156c-0.637-1.24-1.457-2.258-2.467-3.054
    c-1.008-0.796-2.23-1.194-3.668-1.194c-1.242,0-2.301,0.314-3.17,0.941c-0.871,0.628-1.582,1.446-2.135,2.457
    s-0.961,2.144-1.223,3.398c-0.264,1.256-0.395,2.511-0.395,3.766c0,1.408,0.152,2.878,0.457,4.408
    c0.303,1.531,0.773,2.924,1.408,4.179c0.635,1.256,1.457,2.296,2.467,3.123C369.33,589.608,370.539,590.021,371.949,590.021z"/>
  <path fill="#040000" d="M401.791,591.353c-0.441,0-0.975-0.007-1.596-0.023c-0.621-0.015-1.291-0.022-2.01-0.022
    s-1.451-0.007-2.197-0.023c-0.746-0.015-1.451-0.022-2.113-0.022c-1.078,0-2.113,0.016-3.109,0.046
    c-0.994,0.031-1.879,0.046-2.652,0.046l-0.125-1.47c0.912-0.092,1.639-0.222,2.178-0.39c0.537-0.168,0.953-0.452,1.242-0.85
    c0.291-0.397,0.484-0.941,0.58-1.631c0.098-0.688,0.146-1.614,0.146-2.778v-11.894c0-0.856-0.043-1.53-0.125-2.021
    c-0.082-0.489-0.256-0.88-0.518-1.171c-0.264-0.29-0.658-0.512-1.182-0.666c-0.525-0.152-1.23-0.306-2.113-0.459l-0.125-1.286
    c0.746-0.152,1.52-0.328,2.32-0.527s1.576-0.414,2.322-0.644s1.443-0.459,2.092-0.688c0.65-0.229,1.182-0.437,1.596-0.62
    l0.498,0.367c-0.139,0.949-0.221,1.891-0.248,2.824c-0.029,0.935-0.041,1.86-0.041,2.778c0.883-1.193,1.691-2.181,2.424-2.962
    c0.732-0.78,1.402-1.393,2.01-1.837c0.607-0.443,1.168-0.75,1.68-0.918c0.51-0.168,1.016-0.253,1.512-0.253
    c0.719,0,1.383,0.199,1.99,0.597c0.607,0.398,0.912,1.057,0.912,1.975c0,0.613-0.277,1.286-0.83,2.021
    c-0.553,0.735-1.285,1.409-2.195,2.021c-0.498-0.49-1.016-0.865-1.555-1.126c-0.539-0.26-1.127-0.39-1.762-0.39
    c-0.637,0-1.326,0.306-2.072,0.918c-0.746,0.613-1.355,1.501-1.824,2.664c-0.139,0.337-0.221,0.636-0.248,0.896
    c-0.029,0.26-0.041,0.604-0.041,1.033v11.25c0,0.735,0.047,1.325,0.145,1.769c0.096,0.444,0.324,0.788,0.684,1.033
    s0.885,0.413,1.574,0.505c0.691,0.092,1.645,0.169,2.861,0.229L401.791,591.353z"/>
  <path fill="#040000" d="M411.117,588.276c0-0.52,0.09-1.017,0.27-1.492c0.18-0.475,0.422-0.888,0.725-1.239
    c0.305-0.352,0.656-0.628,1.059-0.827c0.4-0.198,0.834-0.299,1.305-0.299c0.441,0,0.871,0.101,1.285,0.299
    c0.414,0.199,0.773,0.476,1.078,0.827c0.303,0.352,0.545,0.765,0.725,1.239c0.18,0.476,0.27,0.973,0.27,1.492
    c0,0.521-0.09,1.019-0.27,1.493s-0.422,0.888-0.725,1.239c-0.305,0.352-0.664,0.627-1.078,0.827
    c-0.414,0.198-0.844,0.298-1.285,0.298c-0.471,0-0.904-0.1-1.305-0.298c-0.402-0.2-0.754-0.476-1.059-0.827
    c-0.303-0.352-0.545-0.765-0.725-1.239S411.117,588.797,411.117,588.276z"/>
  <path fill="#040000" d="M432.172,564.626c-0.082,0.766-0.152,1.593-0.207,2.48s-0.104,1.768-0.145,2.64
    c-0.041,0.873-0.068,1.692-0.082,2.457c-0.016,0.766-0.021,1.424-0.021,1.975v11.756c0,1.562,0.006,3.008,0.021,4.34
    c0.014,1.332,0.02,2.457,0.02,3.375v1.883c0,1.378-0.111,2.687-0.332,3.927c-0.221,1.239-0.496,2.334-0.828,3.283
    c-0.637,1.745-1.734,3.49-3.295,5.235c-1.563,1.744-3.393,3.306-5.492,4.684l-0.994-1.653c1.658-1.286,2.928-2.641,3.813-4.064
    c0.885-1.423,1.527-2.938,1.928-4.546s0.621-3.322,0.662-5.143c0.043-1.822,0.063-3.789,0.063-5.901v-19.195
    c0-0.856-0.041-1.53-0.123-2.021c-0.084-0.489-0.256-0.872-0.52-1.147c-0.262-0.276-0.648-0.49-1.16-0.644
    c-0.512-0.152-1.182-0.306-2.01-0.459l-0.125-1.332c0.857-0.184,1.721-0.374,2.592-0.573c0.869-0.199,1.684-0.406,2.445-0.62
    c0.76-0.214,1.436-0.414,2.029-0.598c0.596-0.184,1.043-0.352,1.348-0.505L432.172,564.626z M426.369,553.238
    c0-1.01,0.277-1.828,0.83-2.456c0.553-0.627,1.285-0.941,2.197-0.941c0.967,0,1.732,0.314,2.299,0.941
    c0.566,0.628,0.85,1.446,0.85,2.456c0,1.011-0.283,1.83-0.85,2.457c-0.566,0.628-1.332,0.941-2.299,0.941
    c-0.912,0-1.645-0.313-2.197-0.941C426.646,555.068,426.369,554.249,426.369,553.238z"/>
  <path fill="#040000" d="M446.1,564.626c-0.057,0.521-0.111,0.98-0.166,1.378c-0.057,0.398-0.07,0.98-0.043,1.745
    c1.271-1.225,2.57-2.112,3.896-2.663c1.326-0.552,2.639-0.827,3.938-0.827c1.438,0,2.813,0.321,4.125,0.965
    c1.313,0.643,2.465,1.531,3.461,2.663c0.994,1.133,1.789,2.487,2.383,4.064s0.891,3.283,0.891,5.12c0,2.234-0.379,4.286-1.139,6.153
    c-0.762,1.867-1.797,3.467-3.109,4.799c-1.313,1.331-2.84,2.373-4.58,3.122c-1.74,0.75-3.605,1.125-5.596,1.125
    c-0.193,0-0.449-0.016-0.766-0.046c-0.318-0.03-0.672-0.076-1.059-0.138s-0.793-0.146-1.223-0.252
    c-0.428-0.107-0.85-0.237-1.264-0.391v14.925c0,0.734,0.049,1.331,0.145,1.791c0.098,0.459,0.332,0.818,0.705,1.079
    c0.373,0.26,0.939,0.451,1.699,0.573s1.803,0.214,3.131,0.276l-0.084,1.698c-0.441,0-0.994-0.008-1.658-0.022
    c-0.662-0.016-1.381-0.023-2.154-0.023c-0.746,0-1.508-0.008-2.279-0.022c-0.775-0.016-1.492-0.023-2.156-0.023
    c-1.078,0-2.143,0.016-3.191,0.046c-1.051,0.03-1.963,0.046-2.736,0.046l-0.123-1.469c0.939-0.092,1.691-0.229,2.258-0.413
    c0.566-0.185,1.002-0.468,1.307-0.85c0.303-0.384,0.504-0.919,0.6-1.607c0.098-0.689,0.146-1.615,0.146-2.778v-32.329
    c0-0.856-0.041-1.53-0.125-2.021c-0.082-0.489-0.277-0.88-0.58-1.171c-0.305-0.29-0.74-0.512-1.305-0.666
    c-0.568-0.152-1.334-0.306-2.301-0.459l-0.125-1.286c0.828-0.184,1.672-0.382,2.529-0.597c0.855-0.214,1.678-0.437,2.465-0.666
    s1.492-0.451,2.115-0.666c0.621-0.214,1.111-0.397,1.471-0.551L446.1,564.626z M445.891,587.083
    c0.746,0.949,1.645,1.623,2.695,2.021c1.049,0.398,2.113,0.597,3.191,0.597c1.326,0,2.473-0.29,3.439-0.872
    c0.967-0.581,1.768-1.37,2.404-2.365c0.635-0.994,1.111-2.136,1.43-3.421c0.318-1.286,0.477-2.633,0.477-4.041
    c0-1.438-0.18-2.824-0.539-4.156s-0.877-2.51-1.553-3.536c-0.678-1.025-1.521-1.844-2.529-2.457
    c-1.01-0.611-2.162-0.918-3.461-0.918c-2.293,0-4.145,0.658-5.555,1.975V587.083z"/>
  <path fill="#040000" d="M482.49,545.385l2.859,0.506l-13.098,51.937l-2.818-0.505L482.49,545.385z"/>
  <path fill="#040000" stroke="#FFFFFF" stroke-width="5.6693" d="M51.405,430.994c0-1.63,0.548-3.994,3.565-3.994
    c3.749,0,3.749,3.342,3.749,3.994v2.854h31.086c0.731,0,2.012,0.163,2.012,1.468s-1.372,1.468-2.012,1.468H58.719v7.989H85.6
    c0.64,0,2.011,0.163,2.011,1.468s-1.371,1.468-2.011,1.468h-26.88v8.805h35.658c0.731,0,2.011,0.163,2.011,1.468
    c0,1.386-1.371,1.467-2.011,1.467H15.198c-0.64,0-2.011-0.163-2.011-1.467c0-1.305,1.372-1.468,2.011-1.468h36.207v-8.805H24.067
    c-0.64,0-2.012-0.163-2.012-1.468c0-1.386,1.372-1.468,2.012-1.468h27.338v-7.989H19.861c-0.64,0-2.011-0.163-2.011-1.468
    c0-1.386,1.372-1.468,2.011-1.468h31.544V430.994z M33.576,488.063v9.132c0,1.875-0.823,3.994-3.657,3.994
    c-3.292,0-3.657-2.608-3.657-3.994v-25.029c0-6.604,2.377-7.419,9.6-7.419h38.035c8.503,0,9.6,1.875,9.6,7.419v21.197
    c0,3.832,0,7.256-8.229,7.256H64.479c-0.914,0-2.469,0-2.469-1.468s1.463-1.468,2.469-1.468h6.675c4.663,0,5.12-1.06,5.12-4.646
    v-4.974H33.576z M76.274,474.611v-2.201c0-3.668-0.458-4.729-5.12-4.729H38.696c-4.389,0-5.12,0.897-5.12,4.729v2.201H76.274z
     M76.274,485.128v-7.582H33.576v7.582H76.274z"/>
  <path fill="#040000" stroke="#FFFFFF" stroke-width="5.6693" d="M133.415,430.75c0-1.223,0.274-3.832,3.475-3.832
    c3.474,0,3.474,3.18,3.474,3.832v4.402h21.486v-4.565c0-1.223,0.366-3.669,3.292-3.669c3.108,0,3.383,2.527,3.383,3.669v4.565
    h22.126c0.64,0,2.011,0.244,2.011,1.468c0,1.386-1.371,1.467-2.011,1.467h-22.126v2.446c0,1.142-0.366,3.587-3.383,3.587
    s-3.292-2.527-3.292-3.587v-2.446h-21.486v2.202c0,1.223-0.274,3.831-3.474,3.831c-3.475,0-3.475-3.098-3.475-3.831v-2.202h-22.218
    c-0.64,0-2.011-0.163-2.011-1.386c0-1.386,1.372-1.549,2.011-1.549h22.218V430.75z M133.232,470.861
    c-7.68,0-8.595-2.445-8.595-6.686v-11.25h-11.246c-0.731,0-2.011-0.163-2.011-1.468c0-1.386,1.372-1.468,2.011-1.468h11.246v-2.445
    c0-0.734,0-3.832,3.475-3.832c3.474,0,3.474,3.098,3.474,3.832v2.445h12.983v-3.506c0-0.733,0-3.75,3.474-3.75
    c3.566,0,3.566,3.017,3.566,3.75v3.506h14.72v-2.527c0-1.223,0.274-3.75,3.383-3.75c3.2,0,3.475,2.608,3.475,3.75v2.527h15.36
    c0.64,0,2.012,0.163,2.012,1.468s-1.372,1.468-2.012,1.468h-15.36v3.831c0,4.811-1.554,6.686-8.595,6.686h-11.52
    c-7.589,0-8.503-2.445-8.503-6.686v-3.831h-12.983v10.354c0,3.832,0.823,4.647,5.211,4.647h43.247c0.64,0,2.011,0.163,2.011,1.467
    c0,1.305-1.372,1.468-2.011,1.468h-25.692v6.767h35.75c0.731,0,2.012,0.163,2.012,1.468s-1.372,1.468-2.012,1.468h-30.629
    c7.406,8.152,22.126,13.289,29.807,15.571c0.549,0.163,1.463,0.408,1.463,1.468c0,0.979-0.823,1.468-1.646,1.468
    c-0.823,0-22.949-5.626-34.744-15.572v14.104c0,1.06-0.274,3.587-3.291,3.587c-3.292,0-3.292-2.935-3.292-3.587v-14.186
    c-13.074,10.354-34.652,15.653-35.749,15.653c-1.006,0-1.646-0.734-1.646-1.468c0-1.06,1.006-1.305,1.737-1.468
    c13.623-3.831,25.052-10.027,30.355-15.571h-31.27c-0.64,0-2.011-0.163-2.011-1.468s1.372-1.468,2.011-1.468h36.572v-6.767H133.232z
     M166.33,452.925h-14.72v2.935c0,3.587,0.548,4.647,5.211,4.647h4.297c4.389,0,5.211-0.815,5.211-4.647V452.925z"/>
  <path fill="#040000" stroke="#FFFFFF" stroke-width="5.6693" d="M226.305,430.178c0-1.06,0.366-3.179,2.926-3.179
    c2.743,0,2.926,2.201,2.926,3.179v2.69h14.72c0.64,0,2.011,0.163,2.011,1.468c0,1.386-1.463,1.468-2.011,1.468h-14.72v7.5h19.201
    c0.73,0,2.012,0.163,2.012,1.468s-1.372,1.468-2.012,1.468h-19.201v5.625h10.697c4.297,0,6.034,0.815,6.034,4.647v3.343
    c0,1.956,0,2.119-0.274,2.854c2.651,0.244,3.2,2.201,3.2,3.668v5.219h34.834c0.641,0,2.012,0.244,2.012,1.467
    c0,1.386-1.371,1.468-2.012,1.468h-30.263c2.103,4.892,5.304,8.642,7.497,10.762c5.211-3.669,6.584-5.137,9.326-7.827
    c1.006-0.978,1.646-1.467,2.926-1.467c1.828,0,3.748,1.386,3.748,3.343c0,1.875-0.09,2.364-13.531,8.233
    c6.309,5.055,10.24,6.522,18.652,9.702c0.73,0.245,1.098,0.896,1.098,1.386c0,0.897-0.916,1.468-1.646,1.468
    c-2.561,0-27.246-8.315-36.39-25.6h-3.931c-2.286,1.875-4.115,3.261-9.052,6.44v12.393c8.96-1.549,14.812-2.854,16.64-3.262
    c0.641-0.163,1.371-0.325,1.92-0.325c0.914,0,1.555,0.733,1.555,1.467c0,1.142-0.274,1.224-8.229,3.343
    c-2.926,0.733-25.601,6.522-27.978,6.522c-2.286,0-2.926-1.712-2.926-2.609c0-1.793,1.829-2.282,2.651-2.445
    c0.914-0.163,8.046-1.305,9.6-1.549v-9.865c-5.029,2.283-15.177,5.87-19.2,5.87c-1.097,0-1.737-0.733-1.737-1.468
    c0-1.06,1.097-1.386,1.737-1.549c10.332-2.69,18.652-7.093,25.875-12.963h-27.337c-0.731,0-2.012-0.163-2.012-1.386
    c0-1.387,1.372-1.468,2.012-1.549h37.029v-5.137c0-0.733,0.091-1.06,0.183-1.468c-0.823,0.082-0.823,0.082-2.743,0.082h-4.389
    c-0.914,0-2.469,0-2.469-1.468s1.555-1.468,2.469-1.468h2.56c1.829,0,2.103-0.407,2.103-1.875v-3.587
    c0-1.549-0.274-1.875-2.103-1.875h-8.137v11.251c0,1.06-0.274,3.179-2.926,3.179s-2.926-2.201-2.926-3.179V454.8h-7.04
    c-1.829,0-2.103,0.407-2.103,1.875v6.767c0,1.142-0.366,3.343-3.017,3.343c-2.561,0-3.018-2.038-3.018-3.343v-6.359
    c0-4.565,1.28-5.218,6.766-5.218h8.412v-5.625h-18.469c-0.731,0-2.011-0.163-2.011-1.468s1.371-1.468,2.011-1.468h18.469v-7.5
    h-9.052c-1.646,1.794-5.12,5.299-6.492,5.299c-1.005,0-1.646-0.733-1.646-1.467c0-0.489,0.183-0.734,1.005-1.794
    c2.103-2.772,2.469-3.587,4.663-8.805c0.457-1.142,1.463-1.875,3.018-1.875c1.828,0,3.2,1.386,3.2,2.853
    c0,0.815-0.457,1.55-1.372,2.854h6.675V430.178z M265.438,454.311c0,1.223-0.365,3.424-3.109,3.424
    c-2.834,0-3.107-2.364-3.107-3.424v-21.36c0-1.142,0.365-3.424,3.107-3.424c2.836,0,3.109,2.364,3.109,3.424V454.311z
     M270.467,465.154c4.754,0,5.211-1.142,5.211-4.729v-30.002c0-1.06,0.273-3.424,3.199-3.424s3.109,2.445,3.109,3.424v30.41
    c0,3.75,0,7.256-8.229,7.256h-7.59c-1.004,0-2.467,0-2.467-1.468s1.463-1.468,2.467-1.468H270.467z"/>
  <path fill="#040000" stroke="#FFFFFF" stroke-width="5.6693" d="M321.664,497.358c0,1.304-0.365,3.75-3.475,3.75
    c-3.383,0-3.383-3.099-3.383-3.75v-42.884c-6.4,5.707-11.246,9.05-12.344,9.05c-0.914,0-1.645-0.734-1.645-1.468
    c0-0.652,0.457-1.06,1.188-1.631c11.154-9.539,17.098-20.219,20.207-28.045c1.006-2.609,1.828-4.484,4.754-4.484
    c2.377,0,4.389,1.712,4.389,3.75c0,2.201-5.303,10.436-9.691,15.572V497.358z M349.275,444.365h-4.662
    c-5.668,7.419-13.623,14.593-14.994,14.593c-0.824,0-1.646-0.57-1.646-1.467c0-0.489,0.184-0.815,0.732-1.387
    c3.199-3.342,9.873-11.006,14.262-23.887c0.824-2.446,1.463-4.403,4.572-4.403c2.377,0,4.389,1.631,4.389,3.832
    s-4.389,8.561-5.211,9.783h35.748c0.641,0,2.012,0.163,2.012,1.468s-1.279,1.468-2.012,1.468h-26.24v16.632h24.229
    c0.641,0,2.012,0.163,2.012,1.467c0,1.305-1.279,1.468-2.012,1.468h-24.229v16.713h24.229c0.641,0,2.012,0.082,2.012,1.468
    c0,1.305-1.279,1.468-2.012,1.468h-24.229v13.696c0,1.223-0.273,3.832-3.475,3.832c-3.475,0-3.475-3.18-3.475-3.832V444.365z"/>
  <path fill="#040000" stroke="#FFFFFF" stroke-width="5.6693" d="M402.943,455.29c0-6.849,1.555-8.316,10.789-8.316h10.422
    c8.686,0,9.967,2.283,9.967,7.908v13.452c0,6.277-4.938,6.686-8.686,6.686h-15.545c-0.365,7.582-1.828,12.881-7.314,20.219
    c-1.096,1.468-2.926,3.995-4.113,3.995c-0.822,0-1.555-0.489-1.555-1.468c0-0.652,2.377-4.892,2.834-5.87
    c1.189-2.69,3.201-7.093,3.201-18.018V455.29z M434.578,430.913c0.73,0,2.012,0.163,2.012,1.468c0,1.304-1.371,1.467-2.012,1.467
    h-33.465c-0.639,0-2.01-0.163-2.01-1.467c0-1.305,1.371-1.468,2.01-1.468H434.578z M409.891,472.083h11.887
    c4.846,0,5.852-0.733,5.852-5.218v-11.739c0-4.321-0.822-5.218-5.852-5.218h-6.035c-4.936,0-5.852,0.815-5.852,5.218V472.083z
     M464.293,457.654h-14.355v2.201c0,13.941-1.92,22.583-7.223,30.328c-3.656,5.381-9.051,9.62-10.332,9.62
    c-0.914,0-1.645-0.733-1.645-1.468c0-0.57,0.182-0.733,1.006-1.549c10.697-10.354,11.154-22.909,11.154-34.894v-21.279
    c0-2.527,0-7.582,8.137-8.233c9.691-0.815,10.697-0.897,15.086-1.876c1.463-0.326,7.133-2.364,7.863-2.364
    c1.646,0,3.018,1.305,3.018,2.936c0,1.467-0.732,2.119-2.561,2.69c-3.475,1.142-15.816,1.793-18.469,1.875
    c-3.932,0.163-6.035,0.407-6.035,4.892v14.186h28.709c0.641,0,2.012,0.163,2.012,1.468s-1.279,1.468-2.012,1.468h-7.588v39.785
    c0,1.06-0.273,3.669-3.383,3.669c-3.018,0-3.383-2.446-3.383-3.669V457.654z"/>
  <path fill="#040000" d="M51.405,430.994c0-1.63,0.548-3.994,3.565-3.994c3.749,0,3.749,3.342,3.749,3.994v2.854h31.086
    c0.731,0,2.012,0.163,2.012,1.468s-1.372,1.468-2.012,1.468H58.719v7.989H85.6c0.64,0,2.011,0.163,2.011,1.468
    s-1.371,1.468-2.011,1.468h-26.88v8.805h35.658c0.731,0,2.011,0.163,2.011,1.468c0,1.386-1.371,1.467-2.011,1.467H15.198
    c-0.64,0-2.011-0.163-2.011-1.467c0-1.305,1.372-1.468,2.011-1.468h36.207v-8.805H24.067c-0.64,0-2.012-0.163-2.012-1.468
    c0-1.386,1.372-1.468,2.012-1.468h27.338v-7.989H19.861c-0.64,0-2.011-0.163-2.011-1.468c0-1.386,1.372-1.468,2.011-1.468h31.544
    V430.994z M33.576,488.063v9.132c0,1.875-0.823,3.994-3.657,3.994c-3.292,0-3.657-2.608-3.657-3.994v-25.029
    c0-6.604,2.377-7.419,9.6-7.419h38.035c8.503,0,9.6,1.875,9.6,7.419v21.197c0,3.832,0,7.256-8.229,7.256H64.479
    c-0.914,0-2.469,0-2.469-1.468s1.463-1.468,2.469-1.468h6.675c4.663,0,5.12-1.06,5.12-4.646v-4.974H33.576z M76.274,474.611v-2.201
    c0-3.668-0.458-4.729-5.12-4.729H38.696c-4.389,0-5.12,0.897-5.12,4.729v2.201H76.274z M76.274,485.128v-7.582H33.576v7.582H76.274z
    "/>
  <path fill="#040000" d="M133.415,430.75c0-1.223,0.274-3.832,3.475-3.832c3.474,0,3.474,3.18,3.474,3.832v4.402h21.486v-4.565
    c0-1.223,0.366-3.669,3.292-3.669c3.108,0,3.383,2.527,3.383,3.669v4.565h22.126c0.64,0,2.011,0.244,2.011,1.468
    c0,1.386-1.371,1.467-2.011,1.467h-22.126v2.446c0,1.142-0.366,3.587-3.383,3.587s-3.292-2.527-3.292-3.587v-2.446h-21.486v2.202
    c0,1.223-0.274,3.831-3.474,3.831c-3.475,0-3.475-3.098-3.475-3.831v-2.202h-22.218c-0.64,0-2.011-0.163-2.011-1.386
    c0-1.386,1.372-1.549,2.011-1.549h22.218V430.75z M133.232,470.861c-7.68,0-8.595-2.445-8.595-6.686v-11.25h-11.246
    c-0.731,0-2.011-0.163-2.011-1.468c0-1.386,1.372-1.468,2.011-1.468h11.246v-2.445c0-0.734,0-3.832,3.475-3.832
    c3.474,0,3.474,3.098,3.474,3.832v2.445h12.983v-3.506c0-0.733,0-3.75,3.474-3.75c3.566,0,3.566,3.017,3.566,3.75v3.506h14.72
    v-2.527c0-1.223,0.274-3.75,3.383-3.75c3.2,0,3.475,2.608,3.475,3.75v2.527h15.36c0.64,0,2.012,0.163,2.012,1.468
    s-1.372,1.468-2.012,1.468h-15.36v3.831c0,4.811-1.554,6.686-8.595,6.686h-11.52c-7.589,0-8.503-2.445-8.503-6.686v-3.831h-12.983
    v10.354c0,3.832,0.823,4.647,5.211,4.647h43.247c0.64,0,2.011,0.163,2.011,1.467c0,1.305-1.372,1.468-2.011,1.468h-25.692v6.767
    h35.75c0.731,0,2.012,0.163,2.012,1.468s-1.372,1.468-2.012,1.468h-30.629c7.406,8.152,22.126,13.289,29.807,15.571
    c0.549,0.163,1.463,0.408,1.463,1.468c0,0.979-0.823,1.468-1.646,1.468c-0.823,0-22.949-5.626-34.744-15.572v14.104
    c0,1.06-0.274,3.587-3.291,3.587c-3.292,0-3.292-2.935-3.292-3.587v-14.186c-13.074,10.354-34.652,15.653-35.749,15.653
    c-1.006,0-1.646-0.734-1.646-1.468c0-1.06,1.006-1.305,1.737-1.468c13.623-3.831,25.052-10.027,30.355-15.571h-31.27
    c-0.64,0-2.011-0.163-2.011-1.468s1.372-1.468,2.011-1.468h36.572v-6.767H133.232z M166.33,452.925h-14.72v2.935
    c0,3.587,0.548,4.647,5.211,4.647h4.297c4.389,0,5.211-0.815,5.211-4.647V452.925z"/>
  <path fill="#040000" d="M226.305,430.178c0-1.06,0.366-3.179,2.926-3.179c2.743,0,2.926,2.201,2.926,3.179v2.69h14.72
    c0.64,0,2.011,0.163,2.011,1.468c0,1.386-1.463,1.468-2.011,1.468h-14.72v7.5h19.201c0.73,0,2.012,0.163,2.012,1.468
    s-1.372,1.468-2.012,1.468h-19.201v5.625h10.697c4.297,0,6.034,0.815,6.034,4.647v3.343c0,1.956,0,2.119-0.274,2.854
    c2.651,0.244,3.2,2.201,3.2,3.668v5.219h34.834c0.641,0,2.012,0.244,2.012,1.467c0,1.386-1.371,1.468-2.012,1.468h-30.263
    c2.103,4.892,5.304,8.642,7.497,10.762c5.211-3.669,6.584-5.137,9.326-7.827c1.006-0.978,1.646-1.467,2.926-1.467
    c1.828,0,3.748,1.386,3.748,3.343c0,1.875-0.09,2.364-13.531,8.233c6.309,5.055,10.24,6.522,18.652,9.702
    c0.73,0.245,1.098,0.896,1.098,1.386c0,0.897-0.916,1.468-1.646,1.468c-2.561,0-27.246-8.315-36.39-25.6h-3.931
    c-2.286,1.875-4.115,3.261-9.052,6.44v12.393c8.96-1.549,14.812-2.854,16.64-3.262c0.641-0.163,1.371-0.325,1.92-0.325
    c0.914,0,1.555,0.733,1.555,1.467c0,1.142-0.274,1.224-8.229,3.343c-2.926,0.733-25.601,6.522-27.978,6.522
    c-2.286,0-2.926-1.712-2.926-2.609c0-1.793,1.829-2.282,2.651-2.445c0.914-0.163,8.046-1.305,9.6-1.549v-9.865
    c-5.029,2.283-15.177,5.87-19.2,5.87c-1.097,0-1.737-0.733-1.737-1.468c0-1.06,1.097-1.386,1.737-1.549
    c10.332-2.69,18.652-7.093,25.875-12.963h-27.337c-0.731,0-2.012-0.163-2.012-1.386c0-1.387,1.372-1.468,2.012-1.549h37.029v-5.137
    c0-0.733,0.091-1.06,0.183-1.468c-0.823,0.082-0.823,0.082-2.743,0.082h-4.389c-0.914,0-2.469,0-2.469-1.468
    s1.555-1.468,2.469-1.468h2.56c1.829,0,2.103-0.407,2.103-1.875v-3.587c0-1.549-0.274-1.875-2.103-1.875h-8.137v11.251
    c0,1.06-0.274,3.179-2.926,3.179s-2.926-2.201-2.926-3.179V454.8h-7.04c-1.829,0-2.103,0.407-2.103,1.875v6.767
    c0,1.142-0.366,3.343-3.017,3.343c-2.561,0-3.018-2.038-3.018-3.343v-6.359c0-4.565,1.28-5.218,6.766-5.218h8.412v-5.625h-18.469
    c-0.731,0-2.011-0.163-2.011-1.468s1.371-1.468,2.011-1.468h18.469v-7.5h-9.052c-1.646,1.794-5.12,5.299-6.492,5.299
    c-1.005,0-1.646-0.733-1.646-1.467c0-0.489,0.183-0.734,1.005-1.794c2.103-2.772,2.469-3.587,4.663-8.805
    c0.457-1.142,1.463-1.875,3.018-1.875c1.828,0,3.2,1.386,3.2,2.853c0,0.815-0.457,1.55-1.372,2.854h6.675V430.178z M265.438,454.311
    c0,1.223-0.365,3.424-3.109,3.424c-2.834,0-3.107-2.364-3.107-3.424v-21.36c0-1.142,0.365-3.424,3.107-3.424
    c2.836,0,3.109,2.364,3.109,3.424V454.311z M270.467,465.154c4.754,0,5.211-1.142,5.211-4.729v-30.002
    c0-1.06,0.273-3.424,3.199-3.424s3.109,2.445,3.109,3.424v30.41c0,3.75,0,7.256-8.229,7.256h-7.59c-1.004,0-2.467,0-2.467-1.468
    s1.463-1.468,2.467-1.468H270.467z"/>
  <path fill="#040000" d="M321.664,497.358c0,1.304-0.365,3.75-3.475,3.75c-3.383,0-3.383-3.099-3.383-3.75v-42.884
    c-6.4,5.707-11.246,9.05-12.344,9.05c-0.914,0-1.645-0.734-1.645-1.468c0-0.652,0.457-1.06,1.188-1.631
    c11.154-9.539,17.098-20.219,20.207-28.045c1.006-2.609,1.828-4.484,4.754-4.484c2.377,0,4.389,1.712,4.389,3.75
    c0,2.201-5.303,10.436-9.691,15.572V497.358z M349.275,444.365h-4.662c-5.668,7.419-13.623,14.593-14.994,14.593
    c-0.824,0-1.646-0.57-1.646-1.467c0-0.489,0.184-0.815,0.732-1.387c3.199-3.342,9.873-11.006,14.262-23.887
    c0.824-2.446,1.463-4.403,4.572-4.403c2.377,0,4.389,1.631,4.389,3.832s-4.389,8.561-5.211,9.783h35.748
    c0.641,0,2.012,0.163,2.012,1.468s-1.279,1.468-2.012,1.468h-26.24v16.632h24.229c0.641,0,2.012,0.163,2.012,1.467
    c0,1.305-1.279,1.468-2.012,1.468h-24.229v16.713h24.229c0.641,0,2.012,0.082,2.012,1.468c0,1.305-1.279,1.468-2.012,1.468h-24.229
    v13.696c0,1.223-0.273,3.832-3.475,3.832c-3.475,0-3.475-3.18-3.475-3.832V444.365z"/>
  <path fill="#040000" d="M402.943,455.29c0-6.849,1.555-8.316,10.789-8.316h10.422c8.686,0,9.967,2.283,9.967,7.908v13.452
    c0,6.277-4.938,6.686-8.686,6.686h-15.545c-0.365,7.582-1.828,12.881-7.314,20.219c-1.096,1.468-2.926,3.995-4.113,3.995
    c-0.822,0-1.555-0.489-1.555-1.468c0-0.652,2.377-4.892,2.834-5.87c1.189-2.69,3.201-7.093,3.201-18.018V455.29z M434.578,430.913
    c0.73,0,2.012,0.163,2.012,1.468c0,1.304-1.371,1.467-2.012,1.467h-33.465c-0.639,0-2.01-0.163-2.01-1.467
    c0-1.305,1.371-1.468,2.01-1.468H434.578z M409.891,472.083h11.887c4.846,0,5.852-0.733,5.852-5.218v-11.739
    c0-4.321-0.822-5.218-5.852-5.218h-6.035c-4.936,0-5.852,0.815-5.852,5.218V472.083z M464.293,457.654h-14.355v2.201
    c0,13.941-1.92,22.583-7.223,30.328c-3.656,5.381-9.051,9.62-10.332,9.62c-0.914,0-1.645-0.733-1.645-1.468
    c0-0.57,0.182-0.733,1.006-1.549c10.697-10.354,11.154-22.909,11.154-34.894v-21.279c0-2.527,0-7.582,8.137-8.233
    c9.691-0.815,10.697-0.897,15.086-1.876c1.463-0.326,7.133-2.364,7.863-2.364c1.646,0,3.018,1.305,3.018,2.936
    c0,1.467-0.732,2.119-2.561,2.69c-3.475,1.142-15.816,1.793-18.469,1.875c-3.932,0.163-6.035,0.407-6.035,4.892v14.186h28.709
    c0.641,0,2.012,0.163,2.012,1.468s-1.279,1.468-2.012,1.468h-7.588v39.785c0,1.06-0.273,3.669-3.383,3.669
    c-3.018,0-3.383-2.446-3.383-3.669V457.654z"/>
  <polygon id="ロゴ桜_x5F_小_1_" fill="#E9BDD8" stroke="#FFFFFF" stroke-width="11.3386" points="181.979,396.032 335.58,89.335 
    489.18,396.032 "/>
  <polygon id="ロゴ桜_x5F_大_1_" fill="#E9BDD8" points="181.979,396.032 335.58,89.335 489.18,396.032 "/>
  <polygon id="ロゴ緑_x5F_小_1_" fill="#257C5E" stroke="#FFFFFF" stroke-width="11.3386" points="201.179,12.661 9.18,396.032 
    105.177,396.032 201.177,204.346 297.178,396.032 393.177,396.032 "/>
  <polygon id="ロゴ緑_x5F_大_1_" fill="#257C5E" points="201.179,12.661 9.18,396.032 105.177,396.032 201.177,204.346 
    297.178,396.032 393.177,396.032 "/>
</svg>
